<?xml version="1.0" encoding="utf-8"?>
<!-- Generator: Adobe Illustrator 19.1.1, SVG Export Plug-In . SVG Version: 6.00 Build 0)  -->
<svg version="1.1" id="Layer_1" xmlns="http://www.w3.org/2000/svg" xmlns:xlink="http://www.w3.org/1999/xlink" x="0px" y="0px"
	 viewBox="0 0 810 285" style="enable-background:new 0 0 810 285;" xml:space="preserve">
<style type="text/css">
	.st0{fill:#FEFEFE;}
	.st1{fill:#FFFFFF;}
	.st2{fill:#FEA601;}
	.st3{fill:#FEA603;}
</style>
<g>
	<path class="st0" d="M490.2,142.3l-23,0h59.7L490.2,142.3z M534,89C534,89,534,88.9,534,89C534,89,534,89,534,89
		c0,0.1,0,0.1,0.1,0.2C534.1,89.1,534.1,89,534,89z M534.1,89.1L534.1,89.1C534.1,89.1,534.1,89.2,534.1,89.1
		C534.1,89.1,534.1,89.1,534.1,89.1z"/>
	<path class="st1" d="M663.5,142l-173.3,0.3L191.4,142c0,0-13.8,0-20.7,0c-6.8,0-13.7,0-20.5,0c-6.7,0-13.4,0.2-20.5-0.2
		c4.2-10.6,11-18,20.7-22.7c12.8-6.2,25.6-5.1,38.5,1.2c4.2-13.9,13.4-22.2,27.1-25c8-15.1,20.7-20.7,37.2-19.1
		c0.3-0.3,0.7-0.5,1.1-0.8c13.1-9.8,27.7-13.2,43.8-8.4c16.4,4.9,26.8,16.3,32.5,31.9c15.2-4,27.6-1.4,37.6,7c3.5,3,6.7,6.6,9.7,11
		c6.3-4,13-4.4,19.6-3.9C409,99.9,423,95.6,439,99.2c0.7-0.3,0.8-0.4,1-0.5c1-1.1,2.1-2.2,3.1-3.3c11.5-12.5,25.9-19.6,42.7-21.2
		c16.1-1.5,30.9,2.7,44.2,12.1c1.3,0.9,2.7,1.8,4.1,2.6c0,0,0,0,0,0.1c0.1,0,0.1,0.1,0.2,0.1c0,0,0,0,0,0c0,0,0,0,0,0h0
		c0,0-0.1-0.1-0.1-0.2c0,0,0,0,0,0c0.5-0.4,8.8,8.2,8.4,7.1c-3.2-8.3,43,20.4,36.6,14.2l22-14.4c11.4,7.2,20.1,16.5,26.3,28.4
		c7.4-0.6,9.4-1.9,21.2,2.9C660.2,131.8,663.5,142,663.5,142z"/>
	<g>
		<path class="st2" d="M534,89C534,88.9,534,88.9,534,89C534,89,534,89,534,89L534,89z"/>
		<path class="st2" d="M519.3,63.1c-15.3-14.9-33.5-21.4-55-18.3c-10.8,1.5-20.5,5.4-29.1,12c-2.7,2.1-5.4,4.3-8.2,6.6
			c-11.9-16.7-27.6-22.6-47-17.6C372,19.3,347.3,0,318.2,0c-25.2,0-47,14.3-57.7,35.3c-12.1-3.9-24.1-3.2-35.2,4.5
			c-16.8-9.1-33.8-9.7-50.1,0.4c-16.2,10-23.4,25.2-23.1,44.7c-9.5,1.7-18.9,4.3-27,10.2c-4.7-0.7-9.5-1.4-14.2-2.2
			c-7.9-1.3-15.8-1-23.8,0c-11.2,1.3-21.8,4.4-31.7,9.6c-27.8,14.6-45.5,37.2-51.4,68.3c-5.9,30.6,1.6,57.9,21.8,81.6
			c14.5,17.1,32.9,27.5,54.9,31.8c1.8,0.4,3.6,1.2,5.3,1.8c8.3,0,16.7,0,25,0c2.1-0.6,4.2-1.4,6.4-1.8c18.8-3.4,35.2-11.8,48.8-25.1
			c19.8-19.3,30.1-43,29.9-70.9c0-2.3,0-4.6,0-6.7c6.3-6.5,11.2-13.5,14-22.3c-8.3-3.5-14.9-8.8-18.7-17.2c-7,0-13.8,0-20.7,0
			c-6.8,0-13.7,0-20.5,0c-6.7,0-13.4,0.2-20.5-0.2c4.2-10.6,11-18,20.7-22.7c12.9-6.2,25.6-5.1,38.5,1.2c4.2-13.9,13.4-22.2,27.1-25
			c8-15.1,20.7-20.7,37.1-19.1c0.5-0.4,1-0.7,1.5-1.1c0.6-0.4,1.1-0.8,1.7-1.2c0.3-0.2,0.6-0.4,0.9-0.6c0.5-0.4,1.1-0.7,1.6-1
			c0.3-0.2,0.7-0.4,1-0.6c0.5-0.3,1-0.6,1.6-0.9c0.4-0.2,0.7-0.4,1.1-0.6c0.5-0.3,1-0.5,1.5-0.8c0.4-0.2,0.8-0.4,1.2-0.5
			c0.5-0.2,1-0.4,1.5-0.6c0.4-0.2,0.8-0.3,1.2-0.5c0.5-0.2,1-0.4,1.5-0.5c0.4-0.1,0.8-0.3,1.2-0.4c0.5-0.2,1-0.3,1.5-0.4
			c0.4-0.1,0.8-0.2,1.2-0.3c0.5-0.1,1-0.3,1.5-0.4c0.4-0.1,0.8-0.1,1.2-0.2c0.5-0.1,1.1-0.2,1.6-0.3c0.4-0.1,0.8-0.1,1.2-0.1
			c0.6-0.1,1.1-0.1,1.7-0.2c0.4,0,0.7,0,1.1-0.1c0.6,0,1.2-0.1,1.8-0.1c0.3,0,0.6,0,1,0c0.6,0,1.3,0,1.9,0c0.3,0,0.5,0,0.8,0.1
			c0.7,0,1.4,0.1,2.2,0.2c0.1,0,0.3,0,0.4,0.1c2.8,0.3,5.6,0.9,8.5,1.8c15.3,4.5,25.4,14.8,31.3,28.9c0,0.1,0.1,0.1,0.1,0.2
			c0.1,0.2,0.2,0.5,0.3,0.7c0.3,0.7,0.6,1.5,0.9,2.2c0.1,0,0.3-0.1,0.4-0.1c0.7-0.2,1.3-0.3,2-0.5c0.3-0.1,0.5-0.1,0.8-0.2
			c0.7-0.2,1.5-0.3,2.2-0.4c0.1,0,0.1,0,0.2,0c0.8-0.1,1.6-0.2,2.4-0.3c0.2,0,0.4,0,0.5-0.1c0.8-0.1,1.6-0.1,2.3-0.2c0,0,0,0,0,0
			c0.8,0,1.6-0.1,2.4-0.1c0.1,0,0.2,0,0.4,0c1.6,0,3.1,0.1,4.6,0.3c0.1,0,0.2,0,0.2,0c1.5,0.2,3,0.5,4.5,0.9c0.1,0,0.1,0,0.2,0
			c0.7,0.2,1.4,0.4,2.1,0.6c0,0,0,0,0,0c0.7,0.2,1.4,0.5,2.1,0.8c0.1,0,0.1,0,0.2,0.1c0.7,0.3,1.3,0.6,2,0.9c0,0,0.1,0,0.1,0
			c0.7,0.3,1.3,0.7,2,1.1c0.1,0,0.1,0.1,0.2,0.1c0.6,0.3,1.2,0.7,1.8,1.1c0.1,0,0.1,0.1,0.2,0.1c0.6,0.4,1.2,0.8,1.9,1.3
			c0.1,0,0.1,0.1,0.2,0.1c0.5,0.4,1.1,0.8,1.6,1.3c3.6,3,6.9,6.7,9.8,11.1c6.3-4,13-4.4,19.6-3.9C409,99.9,423,95.6,439,99.2
			c0.7-0.3,0.8-0.4,0.9-0.5c1-1.1,2.1-2.2,3.1-3.3c11.5-12.5,25.9-19.6,42.7-21.2c16.1-1.5,30.9,2.7,44.2,12.1
			c1.3,0.9,2.7,1.7,4.1,2.6c-0.1-1.3,0-2.6-0.5-3.7C530.3,76.9,525.7,69.3,519.3,63.1z"/>
	</g>
	<path class="st2" d="M811,222c-1.3,1.5-2.6,2.9-3.8,4.4c-11.7,14.9-26.8,23.8-45.6,26.7c-35.6,5.6-70.6-18.1-78.6-53.5
		c-0.7-2.9-1.4-5.8-1.7-8.8c-0.3-2.8-0.1-5.6-0.1-9.3c-19.3,38.1-58.3,44.5-84.1,33.5c-27.7-11.8-44.6-41.5-37.6-72.9
		c34.5,0,69,0,104.2,0c-3-7.8-8.6-11.9-15.2-15c-6.6-3.1-13.7-3.5-21.2-2.9c-6.1-11.8-14.9-21.2-26.3-28.4
		c33.9-13.2,81.8,8.2,85.3,59.3c0.7-1.2,1.2-2,1.6-2.8c10.3-20.9,26.8-34,49.5-38.8c20.6-4.4,39.5,0.3,56.5,12.8
		c6.1,4.5,11.2,9.9,15.5,16.1c0.4,0.6,1.2,1.1,1.7,1.6C811,170,811,196,811,222z"/>
	<path class="st3" d="M526.9,142.3c-11.2,22.7-47.3,37.3-74.4,25.6c7.9-6.8,13-15.1,14.7-25.6C487.2,142.3,507,142.3,526.9,142.3z"
		/>
</g>
<circle class="st1" cx="219.1" cy="128.1" r="33.9"/>
<circle class="st1" cx="246.4" cy="109.1" r="33.9"/>
<path class="st1" d="M129.6,142c4-16.9,19.3-29.6,37.5-29.6c18.2,0,33.4,12.6,37.4,29.5C202.1,142,132.2,142,129.6,142z"/>
<circle class="st1" cx="285.1" cy="112" r="48"/>
<circle class="st1" cx="429" cy="137" r="40"/>
<path class="st0" d="M631.4,142.1c-40.2,0-97.8,0-128.8,0c0-35.4,29.1-63.8,64.6-63.8C602.7,78.3,631.4,106.7,631.4,142.1z"/>
<path class="st1" d="M544.5,119.6c0,8-1.7,15.6-4.8,22.4c-7.6,0-92.2,0-99.7,0c-3.1-6.8-4.8-14.4-4.8-22.4
	c0-30.2,24.5-54.7,54.7-54.7C520,64.9,544.5,89.4,544.5,119.6z"/>
</svg>
