<?xml version="1.0" encoding="utf-8"?>
<!-- Generator: Adobe Illustrator 19.1.1, SVG Export Plug-In . SVG Version: 6.00 Build 0)  -->
<svg version="1.1" id="Layer_2" xmlns="http://www.w3.org/2000/svg" xmlns:xlink="http://www.w3.org/1999/xlink" x="0px" y="0px"
	 viewBox="0 0 33.8 33" style="enable-background:new 0 0 33.8 33;" xml:space="preserve">
<style type="text/css">
	.st0{fill:#FFA600;}
</style>
<circle class="st0" cx="16.9" cy="16.5" r="16.5"/>
<g>
	<path d="M23.5,22.5c0,0.2-0.1,0.2-0.4,0.2h-1.9c-0.2,0-0.3-0.1-0.4-0.2l-4-4.6l-4,4.6c-0.1,0.1-0.2,0.2-0.2,0.2s-0.1,0-0.3,0h-1.7
		c-0.2,0-0.3-0.1-0.3-0.2c0-0.1,0-0.2,0.1-0.3l5-5.7l-4.7-5.4c-0.1-0.1-0.1-0.2-0.1-0.3c0-0.2,0.1-0.3,0.4-0.3h1.8
		c0.1,0,0.2,0,0.3,0.1s0.2,0.1,0.3,0.2l3.5,4.2l3.6-4.2c0.1-0.1,0.2-0.2,0.3-0.3c0.1,0,0.2,0,0.3,0h1.6c0.2,0,0.4,0.1,0.4,0.3
		c0,0.1,0,0.2-0.1,0.3l-4.7,5.3l5.1,5.8C23.5,22.3,23.5,22.4,23.5,22.5z"/>
</g>
</svg>
