<?xml version="1.0" encoding="utf-8"?>
<!-- Generator: Adobe Illustrator 19.1.1, SVG Export Plug-In . SVG Version: 6.00 Build 0)  -->
<svg version="1.1" id="Layer_1" xmlns="http://www.w3.org/2000/svg" xmlns:xlink="http://www.w3.org/1999/xlink" x="0px" y="0px"
	 viewBox="0 0 55 55" style="enable-background:new 0 0 55 55;" xml:space="preserve">
<style type="text/css">
	.st0{fill:#FFFFFF;}
</style>
<g>
	<path class="st0" d="M54,9.1c0-0.4,0-0.8,0-1.1c-0.1-1.7-0.7-2.2-2.3-2.2c-15.1,0-30.1,0-45.2,0c-0.8,0-1.5,0-2.3,0
		C3,5.8,2,6.7,1.9,8c0,1.7,0,3.4,0,5.1c0,7.8,0,15.6,0,23.4c0,0.7-0.1,1.4,0.5,2.1c0.7,0.7,1.4,0.8,2.3,0.8c7.8,0,15.6,0,23.4,0
		h19.7c1.5,0,3.1,0,4.6,0c1,0,1.5-0.5,1.5-1.5c0-0.4,0-0.8,0-1.1V9.1z M28.2,37c-0.8,0-0.8-1.3,0-1.3C29,35.7,29,37,28.2,37z
		 M51.7,9.6c0,7.2,0,14.5,0,21.7c0,1.3,0,1.3-1.4,1.3c-7.3,0-14.7,0-22,0H7.5c-0.6,0-1.1,0-1.7,0c-1-0.1-1.5-0.5-1.5-1.5
		c0-2.6,0-5.1,0-7.7c0-4.7,0-9.3,0-14c0-1,0.7-1.8,1.7-1.9c0.5-0.1,1,0,1.4,0h41.7c0.5,0,1,0,1.4,0c0.7,0.1,1.2,0.5,1.2,1.3
		C51.7,9,51.7,9.3,51.7,9.6z"/>
	<path class="st0" d="M27.6,49.2c-2,0-4,0-6,0c-0.5,0-1.5,0.5-1.4-0.7c0-1,0.5-1.5,1.5-1.6c1.1,0,2.3,0,3.4,0c0.6,0,0.8-0.2,0.8-0.8
		c0-1.4,0-2.8,0-4.3c0-0.2,0.4-0.6,0.6-0.6c0.7-0.1,1.5,0,2.3,0c0.8-0.1,1.2,0.2,1.1,1.1c-0.1,1.2,0,2.5,0,3.7c0,0.7,0.1,1,0.9,1
		c1.2-0.1,2.5,0,3.7,0c0.8,0,1.1,0.2,1.1,1.1c0,1-0.2,1.3-1.2,1.3C32.2,49.1,29.9,49.2,27.6,49.2z"/>
	<path class="st0" d="M23.2,25.9c-0.5-0.2-1.1-0.3-1.4-0.7c-1.2-1.2-2.8-2-4.2-2.9c-1.7-1-1.9-2.9-0.2-4c1.4-0.9,2.8-1.9,4.3-2.8
		c0.3-0.2,0.6-0.6,0.9-0.6c0.5-0.1,1.3-0.1,1.6,0.2c0.5,0.6-0.2,1-0.6,1.3c-1.1,0.9-2.2,1.6-3.3,2.5c-0.4,0.3-0.9,0.6-1.3,1
		c-0.6,0.5-0.8,0.8,0.2,1.4c1.7,0.9,3.1,2.1,4.6,3.3c0.2,0.2,0.5,0.7,0.4,0.9C24.1,25.6,23.6,25.7,23.2,25.9z"/>
	<path class="st0" d="M32.8,14.8c0.5,0.1,0.8,0.1,1,0.3c1.8,1.2,3.6,2.4,5.3,3.6c0.3,0.2,0.6,0.5,0.8,0.8c0.5,0.6,0.5,1.2,0,1.7
		c-0.6,0.5-1.3,1-2,1.4c-1.3,0.9-2.7,1.9-4,2.8c-0.6,0.5-1.3,0.6-1.7,0c-0.3-0.5-0.1-1.3,0.5-1.7c1.6-1,3.1-2.1,4.7-3.1
		c0.6-0.4,0.2-0.5,0-0.7c-1.5-1.1-3-2.3-4.6-3.2c-0.5-0.3-0.7-0.5-0.6-1C32.4,15.3,32.6,15.1,32.8,14.8z"/>
	<path class="st0" d="M26.4,29.1l-0.5-0.2c-0.4-0.1-0.6-0.6-0.5-0.9L30.1,13c0.1-0.4,0.6-0.6,0.9-0.5l0.5,0.2
		c0.4,0.1,0.6,0.6,0.5,0.9l-4.8,14.9C27.2,29,26.8,29.2,26.4,29.1z"/>
</g>
</svg>
