<?xml version="1.0" encoding="utf-8"?>
<!-- Generator: Adobe Illustrator 19.1.1, SVG Export Plug-In . SVG Version: 6.00 Build 0)  -->
<svg version="1.1" id="Layer_1" xmlns="http://www.w3.org/2000/svg" xmlns:xlink="http://www.w3.org/1999/xlink" x="0px" y="0px"
	 viewBox="0 0 55 55" style="enable-background:new 0 0 55 55;" xml:space="preserve">
<style type="text/css">
	.st0{fill:#FFFFFF;}
</style>
<g>
	<path class="st0" d="M28,54.5c-0.6-0.1-1.3-0.2-1.9-0.3c-1.9-0.3-3.8-0.9-5.5-1.6c-2.1-0.9-4-2-5.7-3.5c-1.4-1.2-2.6-2.5-3.9-3.8
		c-1.8-2-3.2-4.3-4.3-6.7c-1-2.3-1.9-4.6-2.3-7.1C4.2,30.3,4.1,29,4,27.8c-0.2-1.7,0-3.3,0.1-4.9c0.2-2.5,0.7-4.9,1.6-7.2
		c0.9-2.3,2-4.4,3.5-6.3c1.4-1.7,3-3.2,4.8-4.4c2.6-1.8,5.5-2.9,8.6-3.6c1.2-0.2,2.4-0.4,3.6-0.5c0.1,0,0.1-0.1,0.2-0.1
		c1.8,0,3.6,0,5.5,0c0.5,0.1,1,0.2,1.5,0.2c2.7,0.3,5.4,0.9,7.9,2c1.7,0.7,3.2,1.6,4.7,2.7c1.9,1.4,3.4,3.1,4.6,5.2
		c0.7,1.2,1.2,2.4,1.5,3.7c0.3,1.3,0.4,2.7,0.2,4c-0.2,1-0.3,1.9-0.4,2.9c-0.3,1.5-0.9,2.9-1.7,4.2c-1.4,2.2-3.3,3.8-5.4,5.4
		c-1,0.8-2,1.5-3,2.4c-1,0.9-1.2,2-0.8,3.2c0.3,0.9,0.6,1.7,1,2.6c0.5,1.4,0.8,2.8,0.7,4.3c-0.2,1.7-0.5,3.3-1.3,4.8
		c-1.3,2.5-3.3,4.2-5.9,5.2c-1.1,0.4-2.3,0.6-3.4,0.9c0,0-0.1,0.1-0.1,0.1C30.6,54.5,29.3,54.5,28,54.5z M29.1,2.9
		C28.3,3,27.4,3,26.4,3c-0.6,0-1.3,0.1-1.9,0.2c-1.1,0.2-2.2,0.5-3.2,0.8c-3.1,0.8-5.8,2.3-8.1,4.4c-2.1,1.9-3.7,4.2-4.9,6.8
		c-1.3,2.9-1.9,5.9-2.1,9c-0.1,1.7,0,3.4,0.2,5.1c0.2,1.5,0.5,3,0.9,4.5C7.9,36,8.9,38,10,39.9c1.1,1.9,2.5,3.7,4.1,5.3
		c0.8,0.8,1.8,1.6,2.7,2.4c1.5,1.2,3.1,2.1,4.8,2.9c2.3,0.9,4.6,1.5,7.1,1.7c1.7,0.1,3.4,0.1,5.1-0.5c2.6-0.8,4.7-2.4,5.9-4.9
		c0.4-0.9,0.7-1.9,0.8-2.9c0.1-1.1,0.2-2.1-0.2-3.2c-0.3-0.8-0.7-1.7-1-2.5c-0.5-1.2-0.7-2.5-0.4-3.9c0.4-1.7,1.6-2.8,2.9-3.8
		c1.9-1.4,3.9-2.7,5.4-4.5c0.5-0.6,1-1.3,1.4-2c1.3-2.3,1.7-4.8,1.7-7.3c0-1.4-0.4-2.7-1.1-4c-1-1.8-2.2-3.4-3.8-4.8
		c-1.9-1.6-3.9-2.7-6.2-3.5C35.9,3.4,32.6,3,29.1,2.9z"/>
	<path class="st0" d="M36.2,42.7c0.2,3.3-2.8,6.7-6.8,6.5c-3-0.1-6.5-2.8-6.1-7.1c0.3-3.3,2.9-5.9,6.5-5.9
		C33.4,36.1,36.3,38.9,36.2,42.7z M29.8,38.4c-2.4,0-4.3,1.9-4.3,4.2c0,2.4,1.9,4.2,4.3,4.2c2.3,0,4.2-1.9,4.2-4.2
		C34,40.3,32.1,38.4,29.8,38.4z"/>
	<path class="st0" d="M24.3,12.2c0.1-2.1,0.6-3.7,2-5c1.3-1.2,3.6-1.4,5.1-0.5c1.6,1,2.3,2.6,2.6,4.4c0.3,1.9-0.2,3.5-1.3,5
		c-1.1,1.5-3.2,2.3-5.1,1.5c-1.9-0.8-2.9-2.4-3.2-4.4C24.4,12.8,24.4,12.4,24.3,12.2z M31.8,12.2c0-1.3-0.3-2.4-1.2-3.2
		c-0.8-0.7-1.8-0.8-2.5-0.2c-1.1,0.8-1.5,2-1.5,3.3c0,1.2,0.4,2.3,1.4,3.2c0.6,0.5,1.5,0.7,2.3,0.2C31.4,14.6,31.8,13.4,31.8,12.2z"
		/>
	<path class="st0" d="M21.2,31.7c-0.1,1.8-0.8,3.6-2.6,4.9c-1.6,1.1-3.9,0.9-5.3-0.5c-1.5-1.5-2-3.3-1.9-5.3
		c0.1-1.4,0.6-2.8,1.6-3.9c2.2-2.4,5.6-1.9,7.2,0.9C20.9,28.9,21.2,30,21.2,31.7z M16.3,27.7c-0.7,0-1.4,0.4-1.8,1.1
		c-1,1.5-1,3.2-0.3,4.8c0.4,0.9,1.1,1.6,2.2,1.5c0.8,0,1.4-0.6,1.8-1.2c0.9-1.4,0.9-3.6,0-4.9C17.8,28.2,17.2,27.7,16.3,27.7z"/>
	<path class="st0" d="M22.3,17.3c0.1,1.9-0.6,3.5-1.8,4.8c-0.7,0.7-1.6,1.1-2.6,1.2c-1.6,0.1-2.8-0.5-3.8-1.6
		c-0.8-0.9-1.2-1.9-1.4-3c-0.3-1.5-0.1-3,0.6-4.4c0.9-1.6,2.1-2.7,4.1-2.8c2,0,3.6,1.3,4.4,3.2C22.1,15.5,22.3,16.4,22.3,17.3z
		 M14.8,17.3c0,1,0.2,1.8,0.7,2.6c1.2,1.7,2.7,1.4,3.6,0.1c1.1-1.6,1.2-3.4,0.2-5.1c-1-1.6-2.6-1.7-3.6-0.3
		C15.1,15.4,14.7,16.3,14.8,17.3z"/>
	<path class="st0" d="M41,23.3c-1.9,0.1-3.7-1.4-4.3-3.1c-0.3-0.9-0.6-1.9-0.6-2.8c0-2.3,0.8-4.2,2.9-5.4c1.6-0.9,3.4-0.7,4.8,0.5
		c1.3,1.2,2,2.7,2.1,4.5c0.1,1.9-0.4,3.6-1.8,5C43.3,22.9,42.3,23.4,41,23.3z M43.7,17.3c0-1-0.4-2-1.2-2.9c-0.7-0.8-2.2-0.8-2.9,0
		c-1.3,1.5-1.6,3.7-0.5,5.4c1,1.6,2.5,1.7,3.7,0.4C43.4,19.4,43.7,18.4,43.7,17.3z"/>
</g>
</svg>
