<?xml version="1.0" encoding="utf-8"?>
<!-- Generator: Adobe Illustrator 19.1.1, SVG Export Plug-In . SVG Version: 6.00 Build 0)  -->
<svg version="1.1" id="Layer_2" xmlns="http://www.w3.org/2000/svg" xmlns:xlink="http://www.w3.org/1999/xlink" x="0px" y="0px"
	 viewBox="0 0 29.4 200" style="enable-background:new 0 0 29.4 200;" xml:space="preserve">
<style type="text/css">
	.st0{fill:#FAA51A;}
</style>
<path class="st0" d="M29.4,23.1V0H18.6v0.1C25.2,5.6,29.4,13.9,29.4,23.1z"/>
<path class="st0" d="M13.3,156.1c0,4.7,2.6,8.8,6.4,11c4.9,3.7,8,9.5,8,16c0,7-3.6,13.2-9,16.8h10.8V23.1c0,8.4-3.4,15.9-9,21.4
	c-7.2,5.4-11.9,14-11.9,23.7c0,8.8,3.9,16.8,10.1,22.2v10.3c-2.2,0.5-3.8,2.5-3.8,4.8c0,2.3,1.6,4.3,3.8,4.8v35.5
	C15.4,148.1,13.3,151.9,13.3,156.1z"/>
<ellipse class="st0" cx="8.5" cy="95.2" rx="8.7" ry="8.6"/>
<ellipse class="st0" cx="11" cy="107.2" rx="2.5" ry="2.5"/>
</svg>
