<?xml version="1.0" encoding="utf-8"?>
<!-- Generator: Adobe Illustrator 19.1.1, SVG Export Plug-In . SVG Version: 6.00 Build 0)  -->
<svg version="1.1" id="Layer_1" xmlns="http://www.w3.org/2000/svg" xmlns:xlink="http://www.w3.org/1999/xlink" x="0px" y="0px"
	 viewBox="-15 561.8 826 176.8" style="enable-background:new -15 561.8 826 176.8;" xml:space="preserve">
<style type="text/css">
	.st0{fill:#FEA601;}
	.st1{fill:#FEA603;}
	.st2{fill:#F1F1F1;}
</style>
<path class="st0" d="M519,650.3c-0.1,1.3,0,2.6-0.5,3.7c-3.2,8.2-7.8,15.8-14.2,21.9c-15.3,14.8-33.5,21.3-55,18.2
	c-10.8-1.5-20.5-5.4-29.1-11.9c-2.7-2.1-5.4-4.3-8.2-6.6c-11.9,16.6-27.6,22.5-47,17.5c-8,26.3-32.7,45.5-61.8,45.5
	c-25.2,0-47-14.2-57.7-35c-12.1,3.9-24.1,3.2-35.2-4.5c-16.8,9-33.8,9.6-50.1-0.4c-16.2-9.9-23.4-25-23.1-44.4
	c-9.5-1.7-18.9-4.3-27-10.1c-4.7,0.7-9.5,1.4-14.2,2.2c-7.9,1.3-15.8,1-23.8,0c-11.2-1.3-21.8-4.4-31.7-9.5
	C12.6,622.3-5.1,599.8-11,568.9c-0.5-2.6-0.9-5.3-1.2-7.8h195.9c5,5.7,9,11.9,11.4,19.4c-8.3,3.5-14.9,8.7-18.7,17.1h-41.2
	c-6.7,0-13.4-0.2-20.5,0.2c4.2,10.5,11,17.9,20.7,22.5c12.9,6.2,25.6,5.1,38.5-1.2c4.2,13.8,13.4,22.1,27.1,24.8
	c8,15,20.7,20.5,37.1,19c0.5,0.4,1,0.7,1.5,1.1c0.6,0.4,1.1,0.8,1.7,1.2c0.3,0.2,0.6,0.4,0.9,0.6c0.5,0.4,1.1,0.7,1.6,1
	c0.3,0.2,0.7,0.4,1,0.6c0.5,0.3,1,0.6,1.6,0.9c0.4,0.2,0.7,0.4,1.1,0.6c0.5,0.3,1,0.5,1.5,0.8c0.4,0.2,0.8,0.4,1.2,0.5
	c0.5,0.2,1,0.4,1.5,0.6c0.4,0.2,0.8,0.3,1.2,0.5c0.5,0.2,1,0.4,1.5,0.5c0.4,0.1,0.8,0.3,1.2,0.4c0.5,0.2,1,0.3,1.5,0.4
	c0.4,0.1,0.8,0.2,1.2,0.3c0.5,0.1,1,0.3,1.5,0.4c0.4,0.1,0.8,0.1,1.2,0.2c0.5,0.1,1.1,0.2,1.6,0.3c0.4,0.1,0.8,0.1,1.2,0.1
	c0.6,0.1,1.1,0.1,1.7,0.2c0.4,0,0.7,0,1.1,0.1c0.6,0,1.2,0.1,1.8,0.1h2.9c0.3,0,0.5,0,0.8-0.1c0.7,0,1.4-0.1,2.2-0.2
	c0.1,0,0.3,0,0.4-0.1c2.8-0.3,5.6-0.9,8.5-1.8c15.3-4.5,25.4-14.7,31.3-28.7c0-0.1,0.1-0.1,0.1-0.2c0.1-0.2,0.2-0.5,0.3-0.7
	c0.3-0.7,0.6-1.5,0.9-2.2c0.1,0,0.3,0.1,0.4,0.1c0.7,0.2,1.3,0.3,2,0.5c0.3,0.1,0.5,0.1,0.8,0.2c0.7,0.2,1.5,0.3,2.2,0.4
	c0.1,0,0.1,0,0.2,0c0.8,0.1,1.6,0.2,2.4,0.3c0.2,0,0.4,0,0.5,0.1c0.8,0.1,1.6,0.1,2.3,0.2c0.8,0,1.6,0.1,2.4,0.1h0.4
	c1.6,0,3.1-0.1,4.6-0.3c0.1,0,0.2,0,0.2,0c1.5-0.2,3-0.5,4.5-0.9c0.1,0,0.1,0,0.2,0c0.7-0.2,1.4-0.4,2.1-0.6
	c0.7-0.2,1.4-0.5,2.1-0.8c0.1,0,0.1,0,0.2-0.1c0.7-0.3,1.3-0.6,2-0.9h0.1c0.7-0.3,1.3-0.7,2-1.1c0.1,0,0.1-0.1,0.2-0.1
	c0.6-0.3,1.2-0.7,1.8-1.1c0.1,0,0.1-0.1,0.2-0.1c0.6-0.4,1.2-0.8,1.9-1.3c0.1,0,0.1-0.1,0.2-0.1c0.5-0.4,1.1-0.8,1.6-1.3
	c3.6-3,6.9-6.7,9.8-11c6.3,4,13,4.4,19.6,3.9c11.3,13,25.3,17.3,41.3,13.7c0.7,0.3,0.8,0.4,0.9,0.5c1,1.1,2.1,2.2,3.1,3.3
	c11.5,12.4,25.9,19.5,42.7,21c16.1,1.5,30.9-2.7,44.2-12C516.2,652,517.6,651.2,519,650.3z"/>
<path class="st0" d="M807.9,561.1c-2,37.3-32.9,67-70.7,67c-18.6,0-35.5-7.2-48.1-18.9c-0.7-0.6-1.3-1.2-1.9-1.8
	c-0.5-0.5-0.9-0.9-1.4-1.4c-0.5-0.5-0.9-1-1.3-1.5c-0.4-0.5-0.9-1-1.3-1.5c-2.2-2.6-4.2-5.3-6-8.3c-0.3-0.5-0.7-1.1-1-1.6
	c-0.1-0.2-0.3-0.5-0.4-0.7c-1-1.6-1.9-3.3-2.8-5.1c-0.4-0.8-0.9-1.6-1.6-2.8c-3.5,50.8-51.4,72-85.3,58.9
	c11.4-7.2,20.2-16.5,26.3-28.2c7.5,0.6,14.6,0.2,21.2-2.9c6.6-3.1,12.2-7.1,15.2-14.9H544.5c-2.9-12.8-1.7-25.3,2.5-36.3H807.9z"/>
<path class="st1" d="M511.9,597.2c-11.2-22.5-47.3-37-74.4-25.4c7.9,6.8,13,15,14.7,25.4C472.2,597.2,492,597.2,511.9,597.2z"/>
<path class="st2" d="M648.9,597.1c0,0.3-3.5,10.4-15,15.1c-11.2,4.5-13.6,3.6-20,3c-7.8,26.4-32.4,45.6-61.7,45.6
	c-12.1,0-23.5-3.3-33.2-9c-9.9,13.5-26,22.3-44.1,22.3c-22.7,0-42.1-13.7-50.4-33.3c-3.3,0.9-6.8,1.4-10.5,1.4
	c-13.1,0-24.7-6.3-32-15.9c-6.4,0.4-12.8-0.1-18.9-3.9c-3,4.4-6.2,7.9-9.7,10.9c-9.9,8.3-22.1,10.9-37.1,7.1
	c-5.7,20-24.2,34.6-46.2,34.6c-12.1,0-23.2-4.5-31.7-11.8c-2.3,0.5-4.6,0.7-7,0.7c-13.4,0-25-7.8-30.5-19
	c-13.7-1.3-25-10.7-29.1-23.3c-5.8,3.4-12.5,5.4-19.7,5.4c-18.2,0-33.5-12.6-37.5-29.4h0c-0.1-0.1-0.1-0.3-0.2-0.4h58.9
	c5.4-11.5,17.1-19.5,30.7-19.5c13.1,0,24.4,7.3,30.1,18.1c8.8-9.9,21.6-16.1,35.9-16.1c15,0,28.3,6.8,37.1,17.5h67.1
	c2.6-19.4,19.4-34.4,39.6-34.4s37,15,39.6,34.4H648.9z"/>
</svg>
