<?xml version="1.0" encoding="utf-8"?>
<!-- Generator: Adobe Illustrator 23.0.2, SVG Export Plug-In . SVG Version: 6.00 Build 0)  -->
<svg version="1.1" id="Layer_1" xmlns="http://www.w3.org/2000/svg" xmlns:xlink="http://www.w3.org/1999/xlink" x="0px" y="0px"
	 viewBox="0 0 208 200.6" style="enable-background:new 0 0 208 200.6;" xml:space="preserve">
<style type="text/css">
	.st0{fill:#FFFFFF;}
</style>
<path class="st0" d="M180.5,19.5c0-1.3-1.1-2.4-2.4-2.4c0,0,0,0,0,0c-1.3,0-2.4,1.1-2.4,2.5l0.2,14.2l-2.8-2.7
	C154.2,12.7,129.2,2.7,102.9,3C76.5,3.3,51.8,13.9,33.4,32.7C20.1,46.2,11.1,63.1,7.3,81.5C3.6,99.5,4.9,118,11,135.2
	c0.4,1,1.3,1.6,2.3,1.6c0.3,0,0.6,0,0.8-0.2c1.3-0.4,1.9-1.9,1.5-3.1C3.4,99.4,11.5,62.1,36.9,36.1c17.5-18,41-28,66.1-28.3
	c25.1-0.3,48.8,9.2,66.7,26.7l2.8,2.7l-14.2,0.2c-1.3,0-2.4,1.1-2.4,2.5c0,1.3,1.1,2.4,2.4,2.4c0,0,0,0,0,0l20.2-0.2
	c1.3,0,2.4-1.1,2.4-2.5L180.5,19.5z"/>
<path class="st0" d="M197,68.3c-0.4-1.3-1.9-1.9-3.1-1.5c-1.3,0.4-1.9,1.9-1.5,3.1c12.3,34.2,4.1,71.5-21.2,97.4
	c-17.5,18-41,28-66.1,28.3c-25.1,0.3-48.8-9.2-66.7-26.7l-2.8-2.7l14.2-0.2c1.3,0,2.4-1.1,2.4-2.5c0-1.3-1.1-2.4-2.5-2.4l-20.2,0.2
	c-1.3,0-2.4,1.1-2.4,2.5l0.2,20.2c0,1.3,1.1,2.4,2.4,2.4c0,0,0,0,0,0c1.3,0,2.4-1.1,2.4-2.5l-0.2-14.2l2.8,2.7
	c18.6,18.2,43.1,28.1,69,28.1c0.4,0,0.8,0,1.2,0c26.4-0.3,51.1-10.9,69.5-29.7c13.2-13.5,22.2-30.4,26.1-48.8
	C204.4,104.1,203.1,85.5,197,68.3z"/>
</svg>
