<?xml version="1.0" encoding="utf-8"?>
<!-- Generator: Adobe Illustrator 19.1.1, SVG Export Plug-In . SVG Version: 6.00 Build 0)  -->
<svg version="1.1" id="Layer_2" xmlns="http://www.w3.org/2000/svg" xmlns:xlink="http://www.w3.org/1999/xlink" x="0px" y="0px"
	 viewBox="0 0 29.4 200" style="enable-background:new 0 0 29.4 200;" xml:space="preserve">
<style type="text/css">
	.st0{fill:#FAA51A;}
</style>
<path class="st0" d="M0,23.1V0h10.7v0.1C4.2,5.6,0,13.9,0,23.1z"/>
<path class="st0" d="M16,156.1c0,4.7-2.6,8.8-6.4,11c-4.8,3.7-7.9,9.5-7.9,16c0,7,3.6,13.2,9,16.8H0V23.1c0,8.4,3.4,15.9,8.9,21.4
	c7.2,5.4,11.8,14,11.8,23.7c0,8.8-3.9,16.8-10,22.2v10.3c2.2,0.5,3.8,2.5,3.8,4.8c0,2.3-1.6,4.3-3.8,4.8v35.5
	C13.9,148.1,16,151.9,16,156.1z"/>
<circle class="st0" cx="20.7" cy="95.2" r="8.6"/>
<circle class="st0" cx="18.2" cy="107.2" r="2.5"/>
</svg>
