<?xml version="1.0" encoding="utf-8"?>
<!-- Generator: Adobe Illustrator 19.1.1, SVG Export Plug-In . SVG Version: 6.00 Build 0)  -->
<svg version="1.1" id="Layer_1" xmlns="http://www.w3.org/2000/svg" xmlns:xlink="http://www.w3.org/1999/xlink" x="0px" y="0px"
	 viewBox="0 0 55 55" style="enable-background:new 0 0 55 55;" xml:space="preserve">
<style type="text/css">
	.st0{fill:#FFFFFF;}
</style>
<g>
	<path class="st0" d="M12.9,6.6c0-0.4,0-0.8,0-1.1c0-0.6,0.3-0.9,0.9-0.9c4.6,0,9.2,0,13.8,0c0.6,0,0.9,0.3,0.9,0.9
		c0,0.3,0,0.7,0,1.1c0.3,0,0.5,0,0.8,0c2.5,0,5,0,7.4,0c0.9,0,1.1,0.2,1.1,1.1c0,14,0,28.1,0,42.1c0,1.3-0.1,1.4-1.4,1.4
		c-10.5,0-21.1,0-31.6,0c-1.1,0-1.3-0.2-1.3-1.3c0-12.9,0-25.8,0-38.7c0-1.2,0-2.3,0-3.5c0-0.9,0.3-1.1,1.1-1.1c2.4,0,4.7,0,7.1,0
		C12.1,6.6,12.4,6.6,12.9,6.6z M36,46c0-12.6,0-25.1,0-37.6c-2.5,0-5,0-7.6,0c0,0.3,0,0.6,0,0.8c0,1-0.2,1.2-1.3,1.2
		c-1,0-2.1,0-3.1,0c-3.4,0-6.7,0-10.1,0c-0.8,0-1.1-0.3-1.1-1.1c0-0.3,0-0.6,0-1c-2.6,0-5.1,0-7.6,0c0,12.6,0,25.1,0,37.6
		C15.5,46,25.7,46,36,46z M36.1,49.5c0-0.3,0-0.6,0-0.9c0-0.9,0-0.9-0.9-0.9c-9.7,0-19.5,0-29.2,0c-0.3,0-0.5,0-0.8,0
		c0,0.7,0,1.2,0,1.8C15.5,49.5,25.8,49.5,36.1,49.5z M14.6,8.6c4.1,0,8.1,0,12.2,0c0-0.8,0-1.6,0-2.4c-4.1,0-8.1,0-12.2,0
		C14.6,7.1,14.6,7.8,14.6,8.6z"/>
	<path class="st0" d="M41.9,34.2c0-4,0-8,0-11.9c0-0.5,0.1-1.1,0.4-1.6c1.1-2.3,2.2-4.7,3.4-7c0.4-0.8,0.6-1.5,0.5-2.3
		c0-0.3-0.1-0.7,0-1c0.1-0.3,0.5-0.7,0.7-0.7c0.3,0,0.6,0.3,0.9,0.6c0.1,0.1,0.1,0.3,0,0.4c-0.2,1.5,0.3,2.7,1,4c1,2,2,4.1,3,6.2
		c0.2,0.3,0.3,0.7,0.3,1.1c0,8,0,16.1,0,24.1c0,2.6-1.8,4.4-4.4,4.4c-0.8,0-1.6,0-2.3-0.1c-2-0.4-3.4-2.1-3.4-4.3
		C41.9,42.2,41.9,38.2,41.9,34.2C41.9,34.2,41.9,34.2,41.9,34.2z M50.2,23.9c-1.2,0.1-2.3,0.4-3.4,0.3c-1.1,0-2.2-0.2-3.4-0.4
		c0,0.1,0,0.2,0,0.4c0,5.9,0,11.9,0,17.8c0,0.5,0.3,0.7,0.7,0.9c1.8,0.6,3.6,0.6,5.4,0c0.5-0.2,0.7-0.4,0.7-1c0-3.1,0-6.2,0-9.3
		C50.2,29.6,50.2,26.7,50.2,23.9z M50.2,21.7c-1.1-2.3-2.2-4.5-3.4-6.8c-1.2,2.4-2.3,4.6-3.3,6.8C45.1,22.7,48.6,22.7,50.2,21.7z
		 M43.5,44.7c-0.3,1.9,0.1,3.2,1.2,3.8c1.4,0.7,3,0.7,4.4,0c1.6-0.9,1.2-2.5,1.1-3.8C49.1,44.8,48,45,46.8,45
		C45.7,45,44.6,44.8,43.5,44.7z"/>
	<path class="st0" d="M20.9,30.7c-3.4,0-6.9,0-10.3,0c-1.4,0-1.5-0.1-1.5-1.5c0-3.5,0-6.9,0-10.4c0-0.9,0.3-1.2,1.2-1.2
		c7.1,0,14.1,0,21.2,0c0.9,0,1.1,0.3,1.1,1.1c0,3.6,0,7.2,0,10.8c0,0.9-0.2,1.1-1.2,1.1C28,30.7,24.5,30.7,20.9,30.7z M10.9,19.3
		c0,3.2,0,6.4,0,9.6c6.7,0,13.4,0,20.1,0c0-3.2,0-6.4,0-9.6C24.2,19.3,17.6,19.3,10.9,19.3z"/>
	<path class="st0" d="M13.9,42.4c-1.2,0-2.5,0-3.7,0c-0.8,0-1-0.3-1-1c0-2.4,0-4.8,0-7.2c0-0.8,0.3-1.1,1.1-1.1c2.4,0,4.9,0,7.3,0
		c0.8,0,1.1,0.3,1.1,1.1c0,2.4,0,4.7,0,7.1c0,0.8-0.3,1.1-1.1,1.1C16.3,42.4,15.1,42.4,13.9,42.4z M10.9,34.9c0,2,0,3.9,0,5.8
		c2,0,4,0,6,0c0-2,0-3.9,0-5.8C14.8,34.9,12.9,34.9,10.9,34.9z"/>
	<path class="st0" d="M21.6,38.6c0-0.6,0-1.1,0-1.7c3.5,0,6.9,0,10.4,0c0,0.5,0,1.1,0,1.7C28.6,38.6,25.1,38.6,21.6,38.6z"/>
	<path class="st0" d="M21.6,35.1c0-0.5,0-1.1,0-1.6c3.5,0,6.9,0,10.4,0c0,0.5,0,1,0,1.6C28.6,35.1,25.2,35.1,21.6,35.1z"/>
	<path class="st0" d="M32.1,40.5c0,0.5,0,1,0,1.6c-3.5,0-6.9,0-10.4,0c0-0.5,0-1,0-1.6C25.1,40.5,28.6,40.5,32.1,40.5z"/>
	<path class="st0" d="M14.8,13.4c0,0.6,0,1.1,0,1.6c-1.8,0-3.6,0-5.5,0c0-0.5,0-1,0-1.6C11.1,13.4,12.9,13.4,14.8,13.4z"/>
	<path class="st0" d="M17.8,15c0-0.4,0-0.9,0-1.3c0-0.1,0.2-0.3,0.4-0.3c1.7,0,3.4,0,5.1,0c0,0.6,0,1.1,0,1.7
		C21.5,15,19.7,15,17.8,15z"/>
	<path class="st0" d="M32.1,13.4c0,0.6,0,1.1,0,1.6c-1.8,0-3.6,0-5.5,0c0-0.5,0-1.1,0-1.6C28.4,13.4,30.2,13.4,32.1,13.4z"/>
</g>
</svg>
