<?xml version="1.0" encoding="utf-8"?>
<!-- Generator: Adobe Illustrator 19.1.1, SVG Export Plug-In . SVG Version: 6.00 Build 0)  -->
<svg version="1.1" id="Layer_1" xmlns="http://www.w3.org/2000/svg" xmlns:xlink="http://www.w3.org/1999/xlink" x="0px" y="0px"
	 viewBox="0 0 825 175" style="enable-background:new 0 0 825 175;" xml:space="preserve">
<style type="text/css">
	.st0{clip-path:url(#SVGID_2_);fill:#FAA61A;}
	.st1{clip-path:url(#SVGID_2_);fill:#FFFFFF;}
</style>
<g>
	<defs>
		<rect id="SVGID_1_" width="825" height="175"/>
	</defs>
	<clipPath id="SVGID_2_">
		<use xlink:href="#SVGID_1_"  style="overflow:visible;"/>
	</clipPath>
	<path class="st0" d="M538.7,87.4c-0.1,1.3,0,2.5-0.5,3.6c-3.1,8.1-7.6,15.5-13.9,21.5c-15,14.5-32.8,20.8-53.9,17.8
		c-10.6-1.5-20.1-5.3-28.5-11.7c-2.6-2-5.3-4.2-8-6.4c-11.7,16.3-27.1,22-46.1,17.1c-7.8,25.8-32.1,44.6-60.6,44.6
		c-24.7,0-46.1-13.9-56.6-34.4c-11.9,3.8-23.6,3.1-34.5-4.4c-16.5,8.9-33.1,9.4-49.1-0.4c-15.9-9.7-22.9-24.5-22.6-43.5
		c-9.3-1.6-18.5-4.2-26.5-9.9c-4.6,0.7-9.3,1.4-13.9,2.1c-7.7,1.3-15.5,1-23.3,0c-11-1.3-21.4-4.3-31.1-9.3
		C42.3,60,24.9,38,19.2,7.7c-0.5-2.6-0.9-5.1-1.2-7.7H210c5,5.6,8.8,11.6,11.2,19c-8.1,3.4-14.6,8.6-18.3,16.7h-40.4
		c-6.6,0-13.1-0.2-20.1,0.2c4.1,10.3,10.8,17.5,20.3,22.1c12.6,6,25.1,5,37.7-1.2c4.1,13.5,13.1,21.6,26.6,24.3
		c7.8,14.7,20.3,20.1,36.4,18.6c0.5,0.4,1,0.7,1.5,1.1c0.6,0.4,1.1,0.8,1.7,1.2c0.3,0.2,0.6,0.4,0.9,0.6c0.5,0.4,1.1,0.7,1.6,1
		c0.3,0.2,0.7,0.4,1,0.6c0.5,0.3,1,0.6,1.6,0.9c0.4,0.2,0.7,0.4,1.1,0.6c0.5,0.3,1,0.5,1.5,0.8c0.4,0.2,0.8,0.4,1.2,0.5
		c0.5,0.2,1,0.4,1.5,0.6c0.4,0.2,0.8,0.3,1.2,0.5c0.5,0.2,1,0.4,1.5,0.5c0.4,0.1,0.8,0.3,1.2,0.4c0.5,0.2,1,0.3,1.5,0.4
		c0.4,0.1,0.8,0.2,1.2,0.3c0.5,0.1,1,0.3,1.5,0.4c0.4,0.1,0.8,0.1,1.2,0.2c0.5,0.1,1.1,0.2,1.6,0.3c0.4,0.1,0.8,0.1,1.2,0.1
		c0.6,0.1,1.1,0.1,1.7,0.2c0.4,0,0.7,0,1.1,0.1c0.6,0,1.2,0.1,1.8,0.1h2.8c0.3,0,0.5,0,0.8-0.1c0.7,0,1.4-0.1,2.2-0.2
		c0.1,0,0.3,0,0.4-0.1c2.7-0.3,5.5-0.9,8.3-1.8c15-4.4,24.9-14.4,30.7-28.1c0-0.1,0.1-0.1,0.1-0.2c0.1-0.2,0.2-0.5,0.3-0.7
		c0.3-0.7,0.6-1.5,0.9-2.1c0.1,0,0.3,0.1,0.4,0.1c0.7,0.2,1.3,0.3,2,0.5c0.3,0.1,0.5,0.1,0.8,0.2c0.7,0.2,1.5,0.3,2.2,0.4
		c0.1,0,0.1,0,0.2,0c0.8,0.1,1.6,0.2,2.4,0.3c0.2,0,0.4,0,0.5,0.1c0.8,0.1,1.6,0.1,2.3,0.2c0.8,0,1.6,0.1,2.4,0.1h0.4
		c1.6,0,3-0.1,4.5-0.3c0.1,0,0.2,0,0.2,0c1.5-0.2,2.9-0.5,4.4-0.9c0.1,0,0.1,0,0.2,0c0.7-0.2,1.4-0.4,2.1-0.6
		c0.7-0.2,1.4-0.5,2.1-0.8c0.1,0,0.1,0,0.2-0.1c0.7-0.3,1.3-0.6,2-0.9h0.1c0.7-0.3,1.3-0.7,2-1.1c0.1,0,0.1-0.1,0.2-0.1
		c0.6-0.3,1.2-0.7,1.8-1.1c0.1,0,0.1-0.1,0.2-0.1c0.6-0.4,1.2-0.8,1.9-1.3c0.1,0,0.1-0.1,0.2-0.1c0.5-0.4,1.1-0.8,1.6-1.3
		c3.5-2.9,6.8-6.5,9.6-10.8c6.2,3.9,12.7,4.3,19.2,3.8c11.1,12.8,24.8,16.9,40.5,13.4c0.7,0.3,0.8,0.4,0.9,0.5c1,1.1,2.1,2.1,3,3.2
		c11.3,12.2,25.4,19.1,41.9,20.6c15.8,1.5,30.3-2.6,43.3-11.8C536,89.1,537.3,88.3,538.7,87.4z"/>
	<path class="st0" d="M821.9,0c-2,36.6-32.2,65.7-69.3,65.7c-18.2,0-34.8-7-47.2-18.5c-0.6-0.6-1.3-1.2-1.9-1.8
		c-0.5-0.5-0.9-0.9-1.4-1.4c-0.5-0.5-0.9-1-1.3-1.4c-0.4-0.5-0.9-1-1.3-1.5c-2.1-2.5-4.1-5.2-5.9-8.1c-0.3-0.5-0.7-1.1-1-1.6
		c-0.1-0.2-0.3-0.5-0.4-0.7c-1-1.6-1.8-3.3-2.7-5c-0.4-0.8-0.9-1.5-1.6-2.7c-3.4,49.7-50.4,70.6-83.6,57.7
		c11.2-7,19.8-16.2,25.8-27.6c7.4,0.6,14.3,0.2,20.8-2.8c6.5-3,12-7,14.9-14.6H563.7c-2.8-12.5-1.7-24.8,2.5-35.6H821.9z"/>
	<path class="st0" d="M531.7,35.4c-11-22.1-46.4-36.3-72.9-24.9c7.7,6.6,12.7,14.7,14.4,24.9C492.8,35.4,512.2,35.4,531.7,35.4z"/>
	<path class="st1" d="M666.1,35.3c0,0.3-3.5,10.2-14.7,14.8c-10.9,4.4-13.3,3.5-19.6,2.9c-7.6,25.9-31.8,44.7-60.4,44.7
		c-11.9,0-23-3.2-32.5-8.8c-9.7,13.3-25.5,21.9-43.2,21.9c-22.2,0-41.3-13.4-49.4-32.6c-3.3,0.9-6.7,1.4-10.3,1.4
		c-12.9,0-24.3-6.1-31.4-15.6c-6.2,0.4-12.5-0.1-18.5-3.8c-2.9,4.3-6.1,7.8-9.5,10.7c-9.7,8.1-21.7,10.6-36.4,6.9
		c-5.6,19.6-23.8,34-45.3,34c-11.9,0-22.8-4.4-31-11.6c-2.2,0.5-4.5,0.7-6.9,0.7c-13.2,0-24.5-7.6-29.9-18.6
		c-13.4-1.3-24.6-10.5-28.5-22.9c-5.6,3.4-12.2,5.3-19.3,5.3c-17.8,0-32.8-12.4-36.8-28.8h0c-0.1-0.1-0.1-0.3-0.2-0.4h57.8
		c5.3-11.3,16.8-19.1,30.1-19.1c12.8,0,23.9,7.2,29.5,17.7c8.6-9.7,21.2-15.8,35.2-15.8c14.7,0,27.8,6.7,36.4,17.1h65.8
		c2.6-19,19-33.7,38.9-33.7s36.3,14.7,38.8,33.7H666.1z"/>
</g>
</svg>
