<?xml version="1.0" encoding="utf-8"?>
<!-- Generator: Adobe Illustrator 19.1.1, SVG Export Plug-In . SVG Version: 6.00 Build 0)  -->
<svg version="1.1" id="Layer_1" xmlns="http://www.w3.org/2000/svg" xmlns:xlink="http://www.w3.org/1999/xlink" x="0px" y="0px"
	 viewBox="0 0 55 55" style="enable-background:new 0 0 55 55;" xml:space="preserve">
<style type="text/css">
	.st0{fill:#FFFFFF;}
</style>
<g>
	<path class="st0" d="M42.9,49.5C42.9,49.5,42.9,49.5,42.9,49.5c-0.4-0.1-0.6-0.4-0.7-0.7c-0.3-0.6-0.5-1.3-0.8-1.9
		c-0.5-1.2-0.9-2.5-1.3-3.8c-0.3-1-0.6-1.9-0.9-2.9c-0.1-0.2-0.1-0.4-0.2-0.5c-0.1-0.2-0.3-0.4-0.5-0.4c-0.2,0-0.3,0-0.5,0
		c-12.2,0-24.4,0-36.5,0c-0.2,0-0.3,0-0.5,0c-0.3,0-0.4-0.2-0.4-0.5c0-0.3,0-0.6,0.1-0.9c0.1-0.3,0.3-0.6,0.6-0.7
		c0.3-0.2,0.7-0.3,1-0.5c0.7-0.3,1.4-0.5,2.1-0.6c0.4-0.1,0.9-0.2,1.3-0.2c0.2,0,0.5,0,0.7-0.1c0.2,0,0.3,0,0.5-0.1
		c0.1,0,0.3,0,0.4-0.1c-0.1-0.1-0.3-0.2-0.4-0.4c-0.3-0.3-0.4-0.6-0.6-0.9c-0.1-0.4-0.2-0.9-0.2-1.3c0-3,0-5.9,0-8.9
		c0-4.4,0-8.8,0-13.2c0-0.5,0-0.9,0.2-1.4c0.3-0.7,0.8-1.1,1.5-1.2c0.2,0,0.4-0.1,0.6-0.1c12.6,0,25.2,0,37.8,0c0.5,0,1,0.1,1.4,0.3
		c0.5,0.2,0.8,0.6,1,1.2c0.1,0.3,0.1,0.6,0.1,0.8c0,0.8,0,1.5,0,2.3c0,5.7,0,11.4,0,17.1c0,1,0,2.1,0,3.1c0,0.3,0,0.7-0.1,1
		c-0.1,0.7-0.5,1.2-1,1.5c0,0-0.1,0-0.1,0.1c0,0.1,0.1,0.1,0.1,0.1c0.1,0,0.3,0,0.4,0.1c0.4,0.1,0.8,0.1,1.2,0.2
		c0.4,0.1,0.9,0.2,1.3,0.2c0.3,0.1,0.7,0.1,1,0.2c0.4,0.1,0.8,0.2,1.1,0.3c0.3,0.1,0.6,0.1,0.9,0.2c0.4,0.2,0.7,0.5,0.9,0.9
		c0,0.1,0.1,0.2,0.1,0.4c0,0.1,0,0.1,0.1,0.1c0,0.2,0,0.4,0,0.5c-0.1,0.2-0.3,0.4-0.5,0.4c-0.2,0-0.4,0-0.5,0c-3.6,0-7.2,0-10.7,0
		c-0.3,0-0.5,0-0.8,0c0,0,0,0,0,0c0,0,0,0.1,0,0.1c0.1,0.2,0.1,0.4,0.2,0.5c0.3,0.9,0.6,1.9,0.8,2.8c0.2,0.6,0.4,1.3,0.6,1.9
		c0.1,0.3,0.2,0.6,0.3,1c0.2,0.7,0.4,1.3,0.6,2c0.1,0.3,0.1,0.6,0.1,0.9c-0.1,0.4-0.3,0.7-0.7,0.8c-0.1,0-0.2,0.1-0.3,0.1
		C43.3,49.5,43.1,49.5,42.9,49.5z M36.5,14.8c0,0.1,0,0.1,0,0.1c-0.2,0.5-0.4,0.9-0.6,1.4c-0.1,0.4-0.3,0.7-0.3,1.1
		c0,0.6,0.2,1,0.6,1.4c0.3,0.2,0.5,0.5,0.8,0.7c0.4,0.3,0.7,0.7,1,1.2c0.2,0.3,0.3,0.7,0.3,1.1c0,0.2,0,0.4,0,0.6
		c0,0.2-0.1,0.4-0.1,0.6c0,0.3-0.1,0.5-0.3,0.7c-0.1,0.2-0.2,0.3-0.3,0.5c-0.1,0.2-0.2,0.4-0.1,0.6c0,0.2,0.1,0.4,0.2,0.5
		c0.1,0.2,0.2,0.4,0.3,0.5c0.3,0.8,0.7,1.6,1,2.3c0,0.1,0.1,0.2,0.1,0.3c0,0.1,0,0.2-0.1,0.2c-0.2,0.1-0.2,0.3-0.1,0.5
		c0.3,0.9,0.6,1.9,0.9,2.8c0.1,0.4,0.3,0.8,0.4,1.3c0,0.1,0.1,0.2,0.1,0.3c0.1,0.1,0.2,0.2,0.3,0.2c0.1,0,0.2,0,0.3,0
		c0.7,0,1.4,0,2.1,0c1.1,0,2.2,0,3.3,0c0.1,0,0.1,0,0.2,0c0.2,0,0.2-0.1,0.2-0.3c0-0.1,0-0.1,0-0.2c0-7.6,0-15.2,0-22.8
		c0-0.1,0-0.2,0-0.2c0-0.1,0-0.2-0.2-0.2c-0.1,0-0.2,0-0.3,0c-12.5,0-25,0-37.4,0c-0.1,0-0.2,0-0.2,0c-0.1,0-0.2,0.1-0.2,0.2
		c0,0.1,0,0.2,0,0.3c0,7.6,0,15.2,0,22.8c0,0,0,0.1,0,0.1c0,0.3,0.1,0.4,0.4,0.4c1.3,0,2.5,0,3.8,0c4.8,0,9.5,0,14.3,0
		c3.3,0,6.7,0,10,0c0.2,0,0.4,0,0.5,0c0-0.1,0-0.2-0.1-0.2c-0.2-0.8-0.5-1.5-0.7-2.3c-0.1-0.4-0.3-0.9-0.4-1.3
		c0-0.1-0.1-0.3-0.3-0.3c-0.3-0.1-0.3-0.1-0.4-0.4c-0.1-0.6-0.2-1.2-0.3-1.8c-0.1-0.6-0.2-1.2-0.3-1.7c0-0.1-0.1-0.3-0.1-0.4
		c0-0.1-0.2-0.2-0.3-0.2c-0.1,0-0.3-0.1-0.4-0.1c-0.6-0.2-1.1-0.5-1.4-0.9c-0.5-0.6-0.8-1.3-0.9-2c0-0.2-0.1-0.4-0.1-0.5
		c0-0.3,0-0.6,0-0.8c0-0.4,0-0.9,0.1-1.3c0.2-0.7,0.4-1.3,0.8-1.9c0.4-0.7,1-1.3,1.7-1.8c0.6-0.4,1.3-0.7,2-0.9
		C36.1,14.9,36.3,14.9,36.5,14.8z"/>
</g>
</svg>
