<?xml version="1.0" encoding="utf-8"?>
<!-- Generator: Adobe Illustrator 19.1.1, SVG Export Plug-In . SVG Version: 6.00 Build 0)  -->
<svg version="1.1" id="Layer_1" xmlns="http://www.w3.org/2000/svg" xmlns:xlink="http://www.w3.org/1999/xlink" x="0px" y="0px"
	 viewBox="-278 369 55 55" style="enable-background:new -278 369 55 55;" xml:space="preserve">
<g>
	<path d="M-257.2,396.6c-1.7,0-3.2,0-4.8,0c0-2.9,0-5.7,0-8.7c1.5,0,3.1,0,4.8,0c0-0.4,0-0.7,0-1c0.1-2.2,0-4.4,0.2-6.6
		c0.5-4.5,3.4-7.7,8-8.1c3.2-0.3,6.4-0.1,9.6-0.1c0,2.7,0,5.4,0,8.3c-1.4,0-2.8,0-4.1,0c-0.5,0-1,0-1.4,0c-1.2,0.1-1.9,0.8-2,1.9
		c-0.1,1.8,0,3.6,0,5.5c2.6,0,5.1,0,7.8,0c-0.3,3-0.6,5.8-0.9,8.7c-2.3,0-4.5,0-6.8,0c0,8.2,0,16.3,0,24.5c-3.5,0-6.8,0-10.3,0
		C-257.2,412.9-257.2,404.8-257.2,396.6z"/>
</g>
</svg>
