<?xml version="1.0" encoding="utf-8"?>
<!-- Generator: Adobe Illustrator 19.1.1, SVG Export Plug-In . SVG Version: 6.00 Build 0)  -->
<svg version="1.1" id="Layer_1" xmlns="http://www.w3.org/2000/svg" xmlns:xlink="http://www.w3.org/1999/xlink" x="0px" y="0px"
	 viewBox="-278 369 55 55" style="enable-background:new -278 369 55 55;" xml:space="preserve">
<g>
	<path d="M-259.9,401c0-0.8-0.3-1.5-1-1.9c-0.4-0.3-0.6-0.7-0.6-1.3c0-0.7,0-1.5,0-2.2c-1.1-0.1-2.1-0.1-3.1-0.2
		c-3-0.5-5.5-1.8-6.7-4.7c-1.4-3.3-1.1-8.2,1.9-11.1c1.8-1.7,3.9-2.7,6.3-3.2c1.3-0.3,2.6-0.4,4-0.5c3.5-0.1,7,0,10.5,0
		c0.2,0,0.4,0,0.6,0c0,0.5-0.4,0.8-0.8,0.9c-0.7,0.2-1.4,0.3-2.1,0.5c-0.7,0.1-1.4,0.2-2.1,0.4c-0.2,0-0.3,0.2-0.5,0.3
		c0.2,0.1,0.2,0.2,0.3,0.2c1.7,0.8,2.7,2.2,3,4c0.3,1.7,0.4,3.4,0.1,5.1c-0.3,1.8-1.2,3.3-2.5,4.5c-0.7,0.7-1.5,1.3-2.2,2
		c-0.1,0.1-0.2,0.2-0.3,0.3c-1.3,1.2-1.3,2.4,0,3.6c0.9,0.9,1.9,1.6,2.8,2.4c1.2,1,2.3,2.1,3.1,3.4c1,1.6,1.4,3.4,1.2,5.3
		c-0.2,2.3-0.9,4.3-2.5,6c-1.3,1.4-2.9,2.3-4.6,2.8c-4.3,1.4-8.7,1.6-13.1,0.2c-2-0.6-3.8-1.7-5.1-3.5c-1.9-2.9-2.1-8.2,2.4-10.9
		c2.1-1.3,4.5-1.9,6.9-2.2C-262.7,401.2-261.3,401.1-259.9,401z M-260.9,416c0.4,0,1.1-0.1,1.7-0.2c2.4-0.4,4.5-1.3,6.1-3.2
		c1.3-1.5,1.8-3.2,1.1-5.2c-0.5-1.5-1.5-2.5-2.9-3.3c-2.2-1.3-4.6-1.6-7.1-1.3c-2.2,0.3-4.2,1.1-5.8,2.7c-2.6,2.5-2.5,6,0.3,8.3
		C-265.7,415.4-263.5,415.9-260.9,416z M-255.4,386.9c-0.1-0.5-0.1-1.1-0.2-1.6c-0.4-2.3-1.3-4.3-3.1-5.9c-1-0.9-2.2-1.4-3.6-1.4
		c-1.7,0.1-2.9,1-3.7,2.4c-1.1,2-1.2,4.1-0.7,6.3c0.5,2.3,1.6,4.2,3.5,5.6c2.6,1.9,5.7,1.1,7-1.9
		C-255.6,389.3-255.4,388.2-255.4,386.9z"/>
	<path d="M-236.8,376.3c0.6,0,1.1,0,1.6,0c0,0.2,0,0.4,0,0.6c0,2.3,0,4.6,0,6.9c0,0.4,0.1,0.5,0.5,0.5c2.5,0,5,0,7.5,0
		c0.2,0,0.4,0,0.6,0c0,0.7,0,1.3,0,2c-0.2,0-0.4,0-0.6,0c-2.4,0-4.8,0-7.2,0c-0.7,0-0.7,0-0.7,0.7c0,2.3,0,4.7,0,7
		c0,0.2,0,0.4,0,0.6c-0.6,0-1.1,0-1.6,0c0-0.2,0-0.4,0-0.6c0-2.4,0-4.8,0-7.2c0-0.4-0.1-0.5-0.5-0.5c-2.4,0-4.8,0-7.2,0
		c-0.2,0-0.4,0-0.6,0c0-0.7,0-1.3,0-2.1c2.8,0,5.5,0,8.3,0C-236.8,381.6-236.8,379-236.8,376.3z"/>
</g>
</svg>
