<?xml version="1.0" encoding="utf-8"?>
<!-- Generator: Adobe Illustrator 19.1.1, SVG Export Plug-In . SVG Version: 6.00 Build 0)  -->
<svg version="1.1" id="Layer_1" xmlns="http://www.w3.org/2000/svg" xmlns:xlink="http://www.w3.org/1999/xlink" x="0px" y="0px"
	 viewBox="-278 369 55 55" style="enable-background:new -278 369 55 55;" xml:space="preserve">
<g>
	<path d="M-250,423.5c-0.6-0.1-1.3-0.2-1.9-0.3c-1.9-0.3-3.8-0.9-5.5-1.6c-2.1-0.9-4-2-5.7-3.5c-1.4-1.2-2.6-2.5-3.9-3.8
		c-1.8-2-3.2-4.3-4.3-6.7c-1-2.3-1.9-4.6-2.3-7.1c-0.2-1.2-0.3-2.5-0.4-3.7c-0.2-1.7,0-3.3,0.1-4.9c0.2-2.5,0.7-4.9,1.6-7.2
		c0.9-2.3,2-4.4,3.5-6.3c1.4-1.7,3-3.2,4.8-4.4c2.6-1.8,5.5-2.9,8.6-3.6c1.2-0.2,2.4-0.4,3.6-0.5c0.1,0,0.1-0.1,0.2-0.1
		c1.8,0,3.6,0,5.5,0c0.5,0.1,1,0.2,1.5,0.2c2.7,0.3,5.4,0.9,7.9,2c1.7,0.7,3.2,1.6,4.7,2.7c1.9,1.4,3.4,3.1,4.6,5.2
		c0.7,1.2,1.2,2.4,1.5,3.7c0.3,1.3,0.4,2.7,0.2,4c-0.2,1-0.3,1.9-0.4,2.9c-0.3,1.5-0.9,2.9-1.7,4.2c-1.4,2.2-3.3,3.8-5.4,5.4
		c-1,0.8-2,1.5-3,2.4s-1.2,2-0.8,3.2c0.3,0.9,0.6,1.7,1,2.6c0.5,1.4,0.8,2.8,0.7,4.3c-0.2,1.7-0.5,3.3-1.3,4.8
		c-1.3,2.5-3.3,4.2-5.9,5.2c-1.1,0.4-2.3,0.6-3.4,0.9l-0.1,0.1C-247.4,423.5-248.7,423.5-250,423.5z M-248.9,371.9
		c-0.8,0.1-1.7,0.1-2.7,0.1c-0.6,0-1.3,0.1-1.9,0.2c-1.1,0.2-2.2,0.5-3.2,0.8c-3.1,0.8-5.8,2.3-8.1,4.4c-2.1,1.9-3.7,4.2-4.9,6.8
		c-1.3,2.9-1.9,5.9-2.1,9c-0.1,1.7,0,3.4,0.2,5.1c0.2,1.5,0.5,3,0.9,4.5c0.6,2.2,1.6,4.2,2.7,6.1s2.5,3.7,4.1,5.3
		c0.8,0.8,1.8,1.6,2.7,2.4c1.5,1.2,3.1,2.1,4.8,2.9c2.3,0.9,4.6,1.5,7.1,1.7c1.7,0.1,3.4,0.1,5.1-0.5c2.6-0.8,4.7-2.4,5.9-4.9
		c0.4-0.9,0.7-1.9,0.8-2.9c0.1-1.1,0.2-2.1-0.2-3.2c-0.3-0.8-0.7-1.7-1-2.5c-0.5-1.2-0.7-2.5-0.4-3.9c0.4-1.7,1.6-2.8,2.9-3.8
		c1.9-1.4,3.9-2.7,5.4-4.5c0.5-0.6,1-1.3,1.4-2c1.3-2.3,1.7-4.8,1.7-7.3c0-1.4-0.4-2.7-1.1-4c-1-1.8-2.2-3.4-3.8-4.8
		c-1.9-1.6-3.9-2.7-6.2-3.5C-242.1,372.4-245.4,372-248.9,371.9z"/>
	<path d="M-241.8,411.7c0.2,3.3-2.8,6.7-6.8,6.5c-3-0.1-6.5-2.8-6.1-7.1c0.3-3.3,2.9-5.9,6.5-5.9
		C-244.6,405.1-241.7,407.9-241.8,411.7z M-248.2,407.4c-2.4,0-4.3,1.9-4.3,4.2c0,2.4,1.9,4.2,4.3,4.2c2.3,0,4.2-1.9,4.2-4.2
		C-244,409.3-245.9,407.4-248.2,407.4z"/>
	<path d="M-253.7,381.2c0.1-2.1,0.6-3.7,2-5c1.3-1.2,3.6-1.4,5.1-0.5c1.6,1,2.3,2.6,2.6,4.4c0.3,1.9-0.2,3.5-1.3,5
		c-1.1,1.5-3.2,2.3-5.1,1.5c-1.9-0.8-2.9-2.4-3.2-4.4C-253.6,381.8-253.6,381.4-253.7,381.2z M-246.2,381.2c0-1.3-0.3-2.4-1.2-3.2
		c-0.8-0.7-1.8-0.8-2.5-0.2c-1.1,0.8-1.5,2-1.5,3.3c0,1.2,0.4,2.3,1.4,3.2c0.6,0.5,1.5,0.7,2.3,0.2
		C-246.6,383.6-246.2,382.4-246.2,381.2z"/>
	<path d="M-256.8,400.7c-0.1,1.8-0.8,3.6-2.6,4.9c-1.6,1.1-3.9,0.9-5.3-0.5c-1.5-1.5-2-3.3-1.9-5.3c0.1-1.4,0.6-2.8,1.6-3.9
		c2.2-2.4,5.6-1.9,7.2,0.9C-257.1,397.9-256.8,399-256.8,400.7z M-261.7,396.7c-0.7,0-1.4,0.4-1.8,1.1c-1,1.5-1,3.2-0.3,4.8
		c0.4,0.9,1.1,1.6,2.2,1.5c0.8,0,1.4-0.6,1.8-1.2c0.9-1.4,0.9-3.6,0-4.9C-260.2,397.2-260.8,396.7-261.7,396.7z"/>
	<path d="M-255.7,386.3c0.1,1.9-0.6,3.5-1.8,4.8c-0.7,0.7-1.6,1.1-2.6,1.2c-1.6,0.1-2.8-0.5-3.8-1.6c-0.8-0.9-1.2-1.9-1.4-3
		c-0.3-1.5-0.1-3,0.6-4.4c0.9-1.6,2.1-2.7,4.1-2.8c2,0,3.6,1.3,4.4,3.2C-255.9,384.5-255.7,385.4-255.7,386.3z M-263.2,386.3
		c0,1,0.2,1.8,0.7,2.6c1.2,1.7,2.7,1.4,3.6,0.1c1.1-1.6,1.2-3.4,0.2-5.1c-1-1.6-2.6-1.7-3.6-0.3
		C-262.9,384.4-263.3,385.3-263.2,386.3z"/>
	<path d="M-237,392.3c-1.9,0.1-3.7-1.4-4.3-3.1c-0.3-0.9-0.6-1.9-0.6-2.8c0-2.3,0.8-4.2,2.9-5.4c1.6-0.9,3.4-0.7,4.8,0.5
		c1.3,1.2,2,2.7,2.1,4.5c0.1,1.9-0.4,3.6-1.8,5C-234.7,391.9-235.7,392.4-237,392.3z M-234.3,386.3c0-1-0.4-2-1.2-2.9
		c-0.7-0.8-2.2-0.8-2.9,0c-1.3,1.5-1.6,3.7-0.5,5.4c1,1.6,2.5,1.7,3.7,0.4C-234.6,388.4-234.3,387.4-234.3,386.3z"/>
</g>
</svg>
