<?xml version="1.0" encoding="utf-8"?>
<!-- Generator: Adobe Illustrator 19.1.1, SVG Export Plug-In . SVG Version: 6.00 Build 0)  -->
<svg version="1.1" id="Layer_1" xmlns="http://www.w3.org/2000/svg" xmlns:xlink="http://www.w3.org/1999/xlink" x="0px" y="0px"
	 viewBox="-278 369 55 55" style="enable-background:new -278 369 55 55;" xml:space="preserve">
<g>
	<path d="M-277.2,398.1c0.1-0.4,0.5-0.7,0.8-1c8.3-8.2,16.6-16.4,25-24.7c0.7-0.7,1.4-0.7,2,0c6.6,6.5,13.2,13.1,19.9,19.6
		c1.8,1.8,3.6,3.6,5.4,5.3c0.3,0.3,0.5,0.7,0.4,1.2c-0.1,0.5-0.4,0.8-0.8,0.9c-0.5,0.2-0.9,0.1-1.3-0.3c-0.8-0.8-1.6-1.6-2.4-2.4
		c-7.3-7.2-14.7-14.5-22-21.7c-0.1-0.1-0.1-0.1-0.2-0.2c-0.2,0.2-0.4,0.5-0.7,0.7c-5.6,5.6-11.2,11.1-16.9,16.7
		c-0.2,0.2-0.3,0.4-0.3,0.6c0,7.6,0,15.2,0,22.8c0,1.1,0.5,2,1.5,2.5c0.3,0.1,0.7,0.2,1,0.2c2.5,0,5,0,7.5,0c0,0,0.1,0,0.1,0
		c0-0.1,0-0.2,0-0.3c0-3.6,0-7.2,0-10.8c0-0.9,0.5-1.4,1.4-1.4c4.2,0,8.3,0,12.5,0c0.8,0,1.4,0.5,1.4,1.3c0,0.7-0.5,1.2-1.2,1.3
		c-0.1,0-0.2,0-0.3,0c-3.6,0-7.2,0-10.9,0c-0.1,0-0.2,0-0.4,0c0,0.1,0,0.3,0,0.4c0,3.5,0,7.1,0,10.6c0,0.8-0.3,1.3-1,1.6
		c-3.2,0-6.5,0-9.7,0c-0.1,0-0.1,0-0.2-0.1c-1-0.1-1.9-0.5-2.6-1.2c-1.2-1-1.8-2.4-1.8-4c0-6.8,0-13.6,0-20.3c0-0.1,0-0.2,0-0.3
		c0,0-0.1,0-0.1,0c-0.1,0.1-0.1,0.1-0.2,0.2c-1.3,1.3-2.6,2.6-3.9,3.8c-0.6,0.6-1.4,0.6-1.9,0c-0.2-0.2-0.2-0.4-0.4-0.6
		C-277.2,398.5-277.2,398.3-277.2,398.1z"/>
	<path d="M-244.4,421.1c-0.5-0.2-0.9-0.5-1-1.1c-0.1-0.7,0.5-1.4,1.2-1.4c0.6,0,1.2,0,1.8,0c2.4,0,4.7,0,7.1,0c1.3,0,2.3-0.8,2.6-2
		c0.1-0.3,0.1-0.5,0.1-0.8c0-4.5,0-9,0-13.5c0-0.7,0.3-1.2,1-1.4c0.8-0.2,1.5,0.3,1.6,1.1c0,0.1,0,0.2,0,0.2c0,4.5,0,9,0,13.6
		c0,2.4-1.5,4.3-3.7,5c-0.3,0.1-0.6,0.1-0.8,0.2C-237.9,421.1-241.2,421.1-244.4,421.1z"/>
</g>
</svg>
