<?xml version="1.0" encoding="utf-8"?>
<!-- Generator: Adobe Illustrator 19.1.1, SVG Export Plug-In . SVG Version: 6.00 Build 0)  -->
<svg version="1.1" id="Layer_1" xmlns="http://www.w3.org/2000/svg" xmlns:xlink="http://www.w3.org/1999/xlink" x="0px" y="0px"
	 viewBox="-278 369 55 55" style="enable-background:new -278 369 55 55;" xml:space="preserve">
<g>
	<g id="linkedin">
		<g>
			<path d="M-264.3,385.8h-9.6c-0.7,0-1.2,0.5-1.2,1.2v33.5c0,0.7,0.5,1.2,1.2,1.2h9.6c0.7,0,1.2-0.5,1.2-1.2v-33.5
				C-263.1,386.3-263.6,385.8-264.3,385.8z M-265.5,419.3h-7.2v-31.1h7.2V419.3z M-237.6,385.3c-4.7,0-7.7,2-9.5,3.8l-0.2-2.3
				c-0.1-0.6-0.6-1.1-1.2-1.1h0l-8.7,0.2c-0.3,0-0.6,0.1-0.8,0.4c-0.2,0.2-0.3,0.5-0.3,0.9c0.1,2.4,0.1,5.3,0.1,8.6l0,24.8
				c0,0.7,0.5,1.2,1.2,1.2h9.6c0.7,0,1.2-0.5,1.2-1.2v-19.4c0-1,0.1-1.7,0.3-2.1c0.6-1.5,2.6-3.1,4.8-3.1c2.9,0,4.7,2.2,4.7,6v18.6
				c0,0.7,0.5,1.2,1.2,1.2h9.4c0.7,0,1.2-0.5,1.2-1.2v-19.8C-224.7,391.1-229.5,385.3-237.6,385.3z M-227.1,419.4h-7V402
				c0-5.1-2.8-8.3-7.1-8.3c-3.4,0-6.2,2.4-7,4.6c-0.3,0.7-0.4,1.7-0.4,3v18.2h-7.2l0-23.7c0-2.8,0-5.3-0.1-7.5l6.4-0.1l0.4,3.8
				c0.1,0.6,0.6,1.1,1.2,1.1h0.2c0.4,0,0.8-0.2,1-0.6c0.7-1.1,3.4-4.8,9.2-4.8c6.6,0,10.5,4.8,10.5,13.1L-227.1,419.4L-227.1,419.4
				L-227.1,419.4z M-268.7,371.8c-3.9,0-6.7,2.7-6.7,6.3c0,3.7,2.7,6.3,6.5,6.3c3.9,0,6.7-2.7,6.7-6.3
				C-262.2,374.4-264.9,371.8-268.7,371.8z M-268.8,382c-2.4,0-4.1-1.6-4.1-3.9c0-2.4,1.7-3.9,4.3-3.9c2.5,0,4.2,1.6,4.2,3.9
				C-264.5,380.5-266.2,382-268.8,382z"/>
		</g>
	</g>
</g>
</svg>
