<?xml version="1.0" encoding="utf-8"?>
<!-- Generator: Adobe Illustrator 19.1.1, SVG Export Plug-In . SVG Version: 6.00 Build 0)  -->
<svg version="1.1" id="Layer_1" xmlns="http://www.w3.org/2000/svg" xmlns:xlink="http://www.w3.org/1999/xlink" x="0px" y="0px"
	 viewBox="-278 369 55 55" style="enable-background:new -278 369 55 55;" xml:space="preserve">
<g>
	<path d="M-247.7,418c-3.3,0-6.6,0-9.8,0c0-9.9,0.1-19.7,0-29.5c0.1,0,9.6,0,9.8,0c0,1.4,0,2.7,0,4.1c0,0,0,0,0,0
		c0-0.1,0.1-0.1,0.1-0.2c0.6-0.9,1.2-1.6,2-2.3c1.3-1.1,2.7-1.8,4.3-2.1c1.3-0.3,2.6-0.3,3.9-0.1c1.3,0.1,2.6,0.5,3.8,1.1
		c1.9,0.9,3.4,2.4,4.4,4.3c0.6,1.2,1.1,2.5,1.3,3.8c0.3,1.3,0.4,2.7,0.4,4.1c0,5.6,0,11.2,0,16.7c0,0.1,0,0.2,0,0.2c0,0,0,0,0,0
		c0,0,0,0,0,0c0,0-0.1,0-0.1,0c-3.2,0-6.4,0-9.6,0c0,0,0,0-0.1,0c0-0.1,0-0.1,0-0.2c0-2.6,0-5.2,0-7.8c0-2.7,0-5.3,0-8
		c0-0.8-0.1-1.7-0.3-2.5c-0.1-0.6-0.3-1.2-0.6-1.7c-0.7-1.3-1.8-2.1-3.3-2.3c-0.9-0.1-1.7-0.1-2.6,0.2c-1.1,0.4-2,1.1-2.7,2.1
		c-0.4,0.6-0.7,1.2-0.8,1.8c-0.1,0.5-0.1,1.1-0.1,1.6c0,5.5,0,10.9,0,16.4C-247.7,417.9-247.7,417.9-247.7,418z"/>
	<path d="M-272.8,388.5c3.3,0,6.5,0,9.8,0c0,0.1,0,29.3,0,29.6c-3.3,0-6.5,0-9.8,0C-272.8,408.2-272.8,398.3-272.8,388.5z"/>
	<path d="M-267.8,374.2c0.8,0,1.6,0.1,2.4,0.5c1.6,0.7,2.6,1.9,2.9,3.5c0.3,1.2,0.1,2.3-0.4,3.4c-0.6,1.2-1.6,2.1-2.9,2.5
		c-0.9,0.3-1.8,0.4-2.7,0.3c-0.8-0.1-1.5-0.2-2.2-0.6c-1.6-0.8-2.4-2.1-2.7-3.8c-0.1-1,0-2,0.5-3c0.6-1.2,1.6-2,2.8-2.4
		C-269.3,374.3-268.6,374.2-267.8,374.2z"/>
</g>
</svg>
