<?xml version="1.0" encoding="utf-8"?>
<!-- Generator: Adobe Illustrator 19.1.1, SVG Export Plug-In . SVG Version: 6.00 Build 0)  -->
<svg version="1.1" id="Layer_1" xmlns="http://www.w3.org/2000/svg" xmlns:xlink="http://www.w3.org/1999/xlink" x="0px" y="0px"
	 viewBox="-278 369 55 55" style="enable-background:new -278 369 55 55;" xml:space="preserve">
<g>
	<path d="M-241.4,377.3c0,0.3-0.1,0.6-0.5,0.8c-0.3,0.2-0.6,0.3-1,0.1c-0.4-0.1-0.7-0.6-0.7-0.9c0-0.7-0.3-1.4-0.9-1.8
		c-0.3-0.3-0.7-0.4-1.2-0.4h-6.4c-1.1,0-2.1,0-3.2,0c-0.6,0-1.1,0.2-1.5,0.6c-0.4,0.4-0.6,1-0.6,1.5c0,0.4-0.1,0.6-0.5,0.9
		c-0.3,0.2-0.6,0.3-1,0.1c-0.1,0-0.3-0.1-0.4-0.3c-0.2-0.2-0.3-0.5-0.3-0.8v-0.9c0-0.9,0.3-1.7,1-2.3c0.4-0.5,0.8-0.6,1.5-0.9
		c0,0,0.1,0,0.1,0c0.1,0,0.2,0,0.2,0c0.1,0,0.1,0,0.2-0.1h11.9l0,0.1l0.4,0c0.4,0,0.8,0.2,1.3,0.5c0.7,0.4,1.1,1,1.4,1.9
		c0.1,0.4,0.2,0.7,0.2,1V377.3z"/>
	<path d="M-225.4,406.3c0,0.1-0.1,0.1-0.1,0.2l-0.1,0l-0.1,0.2c-0.1,0.2-0.3,0.3-0.6,0.4c-0.3,0.1-0.9-0.1-1.1-0.4
		c-0.3-0.5-0.3-0.5-0.2-1c0.1-0.3,0.5-0.6,0.8-0.7c0,0,0.1,0,0.1,0c0.4,0,0.8,0.3,1.1,0.6c0,0.1,0,0.3,0.1,0.4V406.3z"/>
	<path d="M-273.4,402.4c0,3.3,0,6.5,0,9.7v2.2c0,0.5,0.1,1,0.4,1.5c0.2,0.5,0.6,1.1,1.3,1.5c0.6,0.4,1.3,0.6,2,0.6h38.5
		c0.7,0,1.3-0.2,2-0.6c0.6-0.3,1-0.8,1.4-1.6c0.2-0.4,0.3-0.8,0.3-1.3c0-0.6,0-1.2,0-1.8c0-0.4,0.1-0.7,0.4-1
		c0.3-0.2,0.6-0.3,0.9-0.2c0.4,0.1,0.5,0.3,0.6,0.4l0.1,0.2l0.1,0c0,0.1,0,0.1,0.1,0.2v2.3c0,0.1-0.1,0.2-0.1,0.3
		c0,0.6-0.2,1.1-0.5,1.6c-0.2,0.5-0.6,1-1,1.5c-0.4,0.5-1,0.9-1.5,1.2c-0.3,0.2-0.7,0.4-1.2,0.5c-0.2,0-0.3,0.1-0.4,0.1
		c-0.1,0-0.1,0-0.2,0.1c0,0-0.1,0-0.1,0c-0.1,0-0.3,0-0.5,0.1c0,0-0.2,0-0.2,0h-0.2c-12.7,0-25.3,0-38,0l-0.3,0c-0.4,0-0.7,0-1-0.1
		l-0.2,0c-0.5-0.1-0.9-0.2-1.3-0.3c-0.6-0.2-1.3-0.6-1.8-1.1c-0.6-0.6-1.1-1.3-1.5-2.2c0-0.1,0-0.2-0.1-0.2c0-0.1-0.1-0.3-0.1-0.4
		c-0.1-0.1-0.1-0.3-0.1-0.4c0-0.1,0.1-0.3-0.1-0.5v-12.7l0.1-0.3c0-0.4,0.2-0.8,0.4-1.2c0.4-0.6,0.9-1.1,1.5-1.4
		c0.1-0.1,0.2-0.1,0.3-0.1l0.1-0.1c0.4-0.1,0.8-0.1,1.2-0.1c0.3,0,0.6,0.1,1,0.2c0.7,0.3,1.1,0.6,1.5,1c0.2,0.2,0.5,0.4,0.8,0.6
		c0.6,0.3,2,1,2.7,1.2c0.4,0.1,0.8,0.2,1.2,0.2c0.7,0.1,1.3,0.1,2,0.1c0.3,0,0.5,0,0.8,0c0.6,0,1.3,0,1.9,0h3.6
		c0.6,0,1.2,0.2,1.9,0.6c0.4,0.3,0.7,0.6,1.1,1.1c0.3,0.4,0.6,0.6,0.9,0.9c0.7,0.5,1.6,0.7,2.5,0.6c0.6-0.1,1.1-0.3,1.5-0.6
		c0.5-0.3,0.9-0.8,1.2-1.2c0.3-0.4,0.6-0.7,1-0.9c0.1,0,0.2-0.1,0.3-0.2c0.2-0.1,0.3-0.2,0.4-0.2s0.2-0.1,0.3-0.1l0.1,0
		c0.2,0,0.4-0.1,0.5-0.1c1.7,0,3.5,0,5.2,0h2.2c0.3,0,0.5,0,1-0.1c0.1,0,0.3,0,0.5-0.1c0.5,0,0.9-0.2,1.3-0.3l0.3-0.1
		c0.5-0.2,1-0.4,1.5-0.7c0.1-0.1,0.2-0.1,0.3-0.2c0.2-0.1,0.3-0.2,0.5-0.3l0.2-0.1c0.3-0.2,0.6-0.4,0.9-0.7l0.2-0.2
		c0.2-0.2,0.3-0.3,0.5-0.5c0.4-0.4,0.8-1,1.2-1.7c0.4-0.7,0.7-1.5,1-2.3c0.1-0.2,0.1-0.4,0.2-0.7c0-0.2,0.1-0.4,0.2-0.7
		c0.1-0.2,0-0.3,0-0.5v-1.2c0-1.1,0-2.2,0-3.3c0-0.6-0.2-1.1-0.5-1.7c-0.4-0.7-1-1.1-1.5-1.4c-0.3-0.2-1-0.4-1.3-0.4l-38.8,0
		c-0.7,0-1.4,0.2-2.1,0.7c-0.6,0.4-1,1-1.2,1.5c-0.2,0.4-0.4,0.9-0.4,1.4c0,1.7,0,3.4,0,5c0,0.5-0.4,1-0.9,1.1
		c-0.3,0.1-0.8-0.1-1.1-0.5c0,0,0-0.1-0.1-0.1c0-0.1-0.1-0.2-0.1-0.3V388c0-0.1,0.1-0.1,0.1-0.3c0-0.1,0-0.2,0-0.3v-0.2
		c0.1-0.1,0.1-0.3,0.1-0.4c0-0.2,0.1-0.4,0.2-0.5l0.1-0.1l0-0.1c0.2-0.6,0.5-1.1,0.9-1.6c0.6-0.7,1.4-1.3,2.3-1.7
		c0.7-0.3,1.3-0.4,2-0.4c7.8,0,15.5,0,23.2,0h10.4c0.8,0,1.7,0,2.5,0c0.4,0,0.8,0,1.1,0c0.8,0,1.6,0,2.3,0.1c0.2,0,0.5,0.1,0.7,0.1
		c0.7,0.2,1.5,0.6,2.1,1.1c0.5,0.4,1,1,1.4,1.8c0.5,0.9,0.5,1.3,0.6,2.1c0,0.1,0,0.2,0.1,0.2v4.5c0,0.1-0.1,0.2-0.1,0.3
		c0,0.5-0.1,1-0.2,1.6l0,0.2c-0.2,0.8-0.5,1.6-0.9,2.4c-0.2,0.3-0.3,0.6-0.5,1c-0.3,0.6-0.8,1.2-1.3,1.8c-0.7,0.7-1.3,1.3-2,1.8
		c-0.4,0.3-0.8,0.5-1.2,0.8c-0.2,0.1-0.4,0.2-0.5,0.3c-0.3,0.2-0.7,0.4-1.1,0.5l-0.4,0.1c-0.6,0.2-1.1,0.3-1.5,0.4
		c-0.1,0-0.2,0-0.4,0.1c-0.1,0-0.3,0-0.5,0.1h-0.1c-0.1,0-0.3,0-0.5,0c-0.2,0.1-0.3,0.1-0.6,0.1h-6.1c-0.5,0-1,0.2-1.4,0.6
		c-0.3,0.3-0.6,0.7-0.7,0.9c-0.3,0.5-0.8,0.8-1.3,1.1c-0.6,0.3-1.3,0.5-2,0.5c-1.1,0-2.3,0-3.4,0c-0.2,0-0.4,0-0.6,0l-0.2-0.1
		c-0.6-0.2-1-0.4-1.3-0.6c-0.5-0.3-0.9-0.7-1.1-1.1c-0.4-0.5-0.7-1.1-1.5-1.3l-0.1-0.1l-1.5,0c-1.2,0-2.5,0-3.7,0
		c-0.2,0-0.4,0-0.6,0c-0.5,0-1,0-1.4-0.1c-0.2,0-0.5-0.1-0.7-0.1l-0.3,0c-0.2,0-0.5-0.1-0.7-0.2c-0.3-0.1-0.5-0.1-0.8-0.2
		c-0.2-0.1-0.5-0.2-0.7-0.3c-0.6-0.2-1.2-0.5-1.7-0.8c-0.6-0.3-1.1-0.7-1.6-1.1l-0.7-0.5h-1l-0.1,0.1
		C-273.4,401.3-273.4,401.9-273.4,402.4z"/>
</g>
</svg>
