<?xml version="1.0" encoding="utf-8"?>
<!-- Generator: Adobe Illustrator 19.1.1, SVG Export Plug-In . SVG Version: 6.00 Build 0)  -->
<svg version="1.1" id="Layer_1" xmlns="http://www.w3.org/2000/svg" xmlns:xlink="http://www.w3.org/1999/xlink" x="0px" y="0px"
	 viewBox="-278 369 55 55" style="enable-background:new -278 369 55 55;" xml:space="preserve">
<path d="M-260.7,408.9c-4.7-0.5-7.9-2.8-9.6-7.2c1.5,0,2.9,0.2,4.3-0.2c-2.9-0.9-5.2-2.5-6.7-5.2c-0.9-1.6-1.4-3.2-1.3-5.2
	c1.4,0.7,2.8,1.1,4.4,1.2c-2.8-2.2-4.3-5-4.3-8.6c0-1.8,0.6-4.1,1.3-5.1c0.9,0.9,1.9,1.9,2.8,2.8c4.5,4.3,9.9,6.8,16.1,7.7
	c0.8,0.1,1.5,0.2,2.3,0.2c0,0,0.1,0,0.2,0c0-0.2,0-0.3,0-0.5c-0.3-2.9,0.1-5.5,1.9-7.9c2.4-3.1,5.5-4.6,9.4-4.2
	c2.3,0.2,4.2,1.1,5.9,2.6c0.5,0.5,1,0.6,1.7,0.4c1.5-0.6,3-1.1,4.4-1.7c0.4-0.1,0.7-0.3,1.2-0.5c-0.8,2.3-2.3,4-4.1,5.5
	c1.8-0.1,3.5-0.8,5.2-1.3c0,0,0,0.1,0.1,0.1c-0.2,0.3-0.4,0.6-0.7,0.9c-1.2,1.4-2.4,2.8-3.9,3.9c-0.3,0.2-0.4,0.5-0.4,0.8
	c-0.2,2-0.2,4-0.5,6c-1.7,8.9-6.3,16-14.1,20.7c-4.2,2.5-8.8,3.8-13.8,3.8c-2.3,0-4.5,0-6.8-0.4c-3.5-0.7-6.8-2-9.9-3.8
	c-0.1,0-0.2-0.1-0.2-0.2c2.6,0,5.3,0,7.8-0.8C-265.3,411.7-262.9,410.5-260.7,408.9z"/>
</svg>
