<?xml version="1.0" encoding="utf-8"?>
<!-- Generator: Adobe Illustrator 19.1.1, SVG Export Plug-In . SVG Version: 6.00 Build 0)  -->
<svg version="1.1" id="Layer_1" xmlns="http://www.w3.org/2000/svg" xmlns:xlink="http://www.w3.org/1999/xlink" x="0px" y="0px"
	 viewBox="-278 369 55 55" style="enable-background:new -278 369 55 55;" xml:space="preserve">
<g>
	<path d="M-265.1,375.6c0-0.4,0-0.8,0-1.1c0-0.6,0.3-0.9,0.9-0.9c4.6,0,9.2,0,13.8,0c0.6,0,0.9,0.3,0.9,0.9c0,0.3,0,0.7,0,1.1
		c0.3,0,0.5,0,0.8,0c2.5,0,5,0,7.4,0c0.9,0,1.1,0.2,1.1,1.1c0,14,0,28.1,0,42.1c0,1.3-0.1,1.4-1.4,1.4c-10.5,0-21.1,0-31.6,0
		c-1.1,0-1.3-0.2-1.3-1.3c0-12.9,0-25.8,0-38.7c0-1.2,0-2.3,0-3.5c0-0.9,0.3-1.1,1.1-1.1c2.4,0,4.7,0,7.1,0
		C-265.9,375.6-265.6,375.6-265.1,375.6z M-242,415c0-12.6,0-25.1,0-37.6c-2.5,0-5,0-7.6,0c0,0.3,0,0.6,0,0.8c0,1-0.2,1.2-1.3,1.2
		c-1,0-2.1,0-3.1,0c-3.4,0-6.7,0-10.1,0c-0.8,0-1.1-0.3-1.1-1.1c0-0.3,0-0.6,0-1c-2.6,0-5.1,0-7.6,0c0,12.6,0,25.1,0,37.6
		C-262.5,415-252.3,415-242,415z M-241.9,418.5c0-0.3,0-0.6,0-0.9c0-0.9,0-0.9-0.9-0.9c-9.7,0-19.5,0-29.2,0c-0.3,0-0.5,0-0.8,0
		c0,0.7,0,1.2,0,1.8C-262.5,418.5-252.2,418.5-241.9,418.5z M-263.4,377.6c4.1,0,8.1,0,12.2,0c0-0.8,0-1.6,0-2.4
		c-4.1,0-8.1,0-12.2,0C-263.4,376.1-263.4,376.8-263.4,377.6z"/>
	<path d="M-236.1,403.2c0-4,0-8,0-11.9c0-0.5,0.1-1.1,0.4-1.6c1.1-2.3,2.2-4.7,3.4-7c0.4-0.8,0.6-1.5,0.5-2.3c0-0.3-0.1-0.7,0-1
		c0.1-0.3,0.5-0.7,0.7-0.7c0.3,0,0.6,0.3,0.9,0.6c0.1,0.1,0.1,0.3,0,0.4c-0.2,1.5,0.3,2.7,1,4c1,2,2,4.1,3,6.2
		c0.2,0.3,0.3,0.7,0.3,1.1c0,8,0,16.1,0,24.1c0,2.6-1.8,4.4-4.4,4.4c-0.8,0-1.6,0-2.3-0.1c-2-0.4-3.4-2.1-3.4-4.3
		C-236.1,411.2-236.1,407.2-236.1,403.2L-236.1,403.2z M-227.8,392.9c-1.2,0.1-2.3,0.4-3.4,0.3c-1.1,0-2.2-0.2-3.4-0.4
		c0,0.1,0,0.2,0,0.4c0,5.9,0,11.9,0,17.8c0,0.5,0.3,0.7,0.7,0.9c1.8,0.6,3.6,0.6,5.4,0c0.5-0.2,0.7-0.4,0.7-1c0-3.1,0-6.2,0-9.3
		C-227.8,398.6-227.8,395.7-227.8,392.9z M-227.8,390.7c-1.1-2.3-2.2-4.5-3.4-6.8c-1.2,2.4-2.3,4.6-3.3,6.8
		C-232.9,391.7-229.4,391.7-227.8,390.7z M-234.5,413.7c-0.3,1.9,0.1,3.2,1.2,3.8c1.4,0.7,3,0.7,4.4,0c1.6-0.9,1.2-2.5,1.1-3.8
		c-1.1,0.1-2.2,0.3-3.4,0.3C-232.3,414-233.4,413.8-234.5,413.7z"/>
	<path d="M-257.1,399.7c-3.4,0-6.9,0-10.3,0c-1.4,0-1.5-0.1-1.5-1.5c0-3.5,0-6.9,0-10.4c0-0.9,0.3-1.2,1.2-1.2c7.1,0,14.1,0,21.2,0
		c0.9,0,1.1,0.3,1.1,1.1c0,3.6,0,7.2,0,10.8c0,0.9-0.2,1.1-1.2,1.1C-250,399.7-253.5,399.7-257.1,399.7z M-267.1,388.3
		c0,3.2,0,6.4,0,9.6c6.7,0,13.4,0,20.1,0c0-3.2,0-6.4,0-9.6C-253.8,388.3-260.4,388.3-267.1,388.3z"/>
	<path d="M-264.1,411.4c-1.2,0-2.5,0-3.7,0c-0.8,0-1-0.3-1-1c0-2.4,0-4.8,0-7.2c0-0.8,0.3-1.1,1.1-1.1c2.4,0,4.9,0,7.3,0
		c0.8,0,1.1,0.3,1.1,1.1c0,2.4,0,4.7,0,7.1c0,0.8-0.3,1.1-1.1,1.1C-261.7,411.4-262.9,411.4-264.1,411.4z M-267.1,403.9
		c0,2,0,3.9,0,5.8c2,0,4,0,6,0c0-2,0-3.9,0-5.8C-263.2,403.9-265.1,403.9-267.1,403.9z"/>
	<path d="M-256.4,407.6c0-0.6,0-1.1,0-1.7c3.5,0,6.9,0,10.4,0c0,0.5,0,1.1,0,1.7C-249.4,407.6-252.9,407.6-256.4,407.6z"/>
	<path d="M-256.4,404.1c0-0.5,0-1.1,0-1.6c3.5,0,6.9,0,10.4,0c0,0.5,0,1,0,1.6C-249.4,404.1-252.8,404.1-256.4,404.1z"/>
	<path d="M-245.9,409.5c0,0.5,0,1,0,1.6c-3.5,0-6.9,0-10.4,0c0-0.5,0-1,0-1.6C-252.9,409.5-249.4,409.5-245.9,409.5z"/>
	<path d="M-263.2,382.4c0,0.6,0,1.1,0,1.6c-1.8,0-3.6,0-5.5,0c0-0.5,0-1,0-1.6C-266.9,382.4-265.1,382.4-263.2,382.4z"/>
	<path d="M-260.2,384c0-0.4,0-0.9,0-1.3c0-0.1,0.2-0.3,0.4-0.3c1.7,0,3.4,0,5.1,0c0,0.6,0,1.1,0,1.7C-256.5,384-258.3,384-260.2,384
		z"/>
	<path d="M-245.9,382.4c0,0.6,0,1.1,0,1.6c-1.8,0-3.6,0-5.5,0c0-0.5,0-1.1,0-1.6C-249.6,382.4-247.8,382.4-245.9,382.4z"/>
</g>
</svg>
